<?xml version="1.0" standalone="no"?>
<!DOCTYPE svg PUBLIC "-//W3C//DTD SVG 20010904//EN"
 "http://www.w3.org/TR/2001/REC-SVG-20010904/DTD/svg10.dtd">
<svg version="1.0" xmlns="http://www.w3.org/2000/svg"
 width="402.000000pt" height="520.000000pt" viewBox="0 0 402.000000 520.000000"
 preserveAspectRatio="xMidYMid meet">

<g transform="translate(0.000000,520.000000) scale(0.100000,-0.100000)"
fill="#000000" stroke="none">
<path d="M1714 4783 c-33 -7 -87 -15 -122 -18 -61 -6 -157 -37 -232 -75 -36
-18 -115 -107 -158 -179 -15 -25 -18 -39 -11 -52 6 -11 5 -20 -1 -24 -5 -3
-10 -17 -10 -31 0 -14 -7 -27 -15 -30 -41 -16 -75 -119 -97 -297 -11 -94 -5
-144 33 -252 48 -140 89 -318 76 -331 -4 -4 -26 1 -50 10 -23 9 -48 16 -55 16
-25 0 -11 -18 28 -35 23 -10 50 -27 62 -37 11 -9 25 -15 29 -12 5 3 9 -9 9
-25 0 -17 -4 -31 -10 -31 -5 0 -10 6 -10 13 0 27 -98 97 -135 97 -8 0 -21 -12
-27 -26 -10 -21 -9 -35 5 -74 9 -26 17 -55 17 -63 0 -9 5 -28 12 -42 12 -26
12 -26 30 22 10 26 18 67 18 91 0 47 7 51 41 22 23 -19 23 -21 5 -34 -23 -18
-11 -39 17 -31 18 5 17 2 -10 -22 -58 -54 -81 -145 -46 -185 9 -10 12 -22 7
-30 -6 -10 -5 -11 7 -1 9 8 29 10 52 6 40 -6 41 -23 1 -23 -27 0 -31 -12 -9
-30 8 -7 13 -16 10 -20 -6 -9 13 -24 30 -25 6 0 15 7 20 17 10 16 11 16 23 -2
10 -17 10 -21 -3 -26 -8 -4 -15 -11 -15 -16 0 -6 7 -4 16 3 15 12 19 10 33
-11 9 -13 21 -45 28 -71 13 -50 31 -95 56 -139 48 -84 51 -98 55 -315 l4 -210
-46 -93 c-49 -97 -55 -136 -40 -246 l7 -47 23 22 c13 12 21 25 19 29 -3 4 7
10 20 13 32 6 48 -15 71 -92 11 -33 34 -74 57 -101 46 -53 97 -152 97 -190 0
-14 7 -36 16 -48 12 -18 13 -26 4 -37 -10 -12 -9 -16 6 -22 24 -9 44 -28 44
-42 0 -6 5 -11 11 -11 5 0 7 5 4 10 -3 6 -1 10 4 10 6 0 11 -5 11 -12 0 -6 8
-20 17 -30 24 -27 5 -43 -33 -26 -85 37 -128 96 -117 162 3 21 1 42 -6 50 -6
7 -9 20 -5 29 6 16 -31 113 -53 137 -7 8 -13 10 -13 5 0 -22 39 -167 48 -178
5 -7 11 -22 14 -33 5 -20 1 -22 -61 -26 -36 -2 -82 -11 -101 -20 -19 -9 -51
-21 -70 -28 -19 -7 -59 -23 -89 -37 -29 -13 -61 -23 -69 -21 -22 4 -31 54 -33
188 -2 176 11 306 32 331 10 12 20 16 24 9 3 -5 2 -10 -3 -10 -6 0 -13 -7 -16
-16 -3 -8 -2 -12 4 -9 6 3 10 2 10 -4 0 -5 -4 -11 -9 -13 -10 -3 -18 -104 -9
-113 3 -4 22 11 42 31 28 29 36 45 36 75 0 21 5 41 12 45 8 5 9 -3 5 -29 -5
-29 -3 -37 10 -37 12 0 14 6 8 28 -3 15 -10 65 -14 112 -4 47 -9 79 -9 71 -3
-24 -65 -111 -84 -116 -10 -4 -18 -11 -18 -16 0 -5 -6 -9 -12 -8 -34 4 -50 -2
-44 -17 3 -8 2 -13 -2 -10 -5 3 -21 -4 -38 -15 -16 -10 -23 -19 -16 -19 10 0
12 -11 6 -45 -9 -63 2 -112 26 -118 27 -7 26 -37 -1 -37 -20 0 -21 -4 -15 -62
3 -35 8 -110 12 -168 3 -58 8 -108 11 -113 2 -4 13 -2 24 3 11 6 24 8 29 5 6
-4 41 0 78 9 37 8 106 18 155 22 l87 7 0 34 c0 44 19 40 35 -8 l12 -34 81 0
c45 -1 84 -4 88 -8 4 -4 -9 -7 -29 -7 -19 0 -48 -5 -62 -10 -24 -9 -26 -14
-21 -43 10 -52 36 -221 36 -234 0 -22 -20 -14 -30 12 -16 41 -23 28 -16 -27
10 -71 21 -89 30 -47 l7 34 12 -25 c13 -26 3 -50 -22 -50 -6 0 -11 -5 -11 -11
0 -9 30 -10 113 -4 196 13 192 14 192 -15 0 -21 -5 -26 -32 -28 -21 -2 -33 -9
-33 -18 0 -8 -9 -14 -20 -14 -26 0 -36 3 -33 11 4 11 -82 20 -126 13 -34 -5
-40 -10 -36 -24 3 -10 1 -21 -5 -25 -8 -5 -7 -11 1 -22 10 -11 10 -16 0 -22
-9 -6 -11 -48 -9 -167 l3 -159 115 3 c104 3 114 1 100 -13 -10 -9 -53 -20
-115 -28 l-100 -12 3 -130 c1 -72 5 -160 8 -198 l6 -67 119 0 c117 0 119 0
119 23 0 12 5 29 10 37 7 11 10 5 10 -23 l0 -37 239 0 239 1 7 62 c3 34 12
112 19 172 14 116 15 165 4 165 -4 0 -9 -10 -11 -22 -4 -20 -4 -19 -6 5 -1 25
-4 27 -43 27 -96 1 -186 8 -197 15 -7 3 -18 1 -26 -5 -8 -6 -23 -9 -35 -5 -22
7 -21 18 -25 -155 -3 -119 -1 -113 -25 -100 -16 9 -20 8 -20 -6 0 -21 -38 -84
-51 -84 -6 0 -8 8 -5 18 2 9 7 27 11 39 5 17 2 23 -9 23 -19 0 -20 11 -3 29
10 11 9 14 0 18 -18 6 -16 30 2 37 8 3 15 10 15 15 0 6 -7 8 -15 5 -12 -5 -15
2 -15 32 0 29 -3 35 -12 26 -7 -7 -12 -42 -12 -87 0 -52 -4 -76 -13 -80 -11
-4 -13 23 -11 138 2 109 0 141 -9 140 -7 -2 -13 4 -13 13 0 8 4 13 9 10 16
-10 22 27 31 193 5 90 13 168 17 172 5 5 15 4 23 -1 10 -7 11 -10 3 -10 -7 0
-13 -4 -13 -10 0 -5 9 -10 19 -10 16 0 19 7 17 52 -1 31 -6 53 -14 56 -7 2
-12 -6 -12 -22 0 -13 -4 -27 -9 -30 -10 -6 -7 54 4 99 14 56 74 174 108 212
18 21 43 53 56 71 12 17 29 32 37 32 8 0 14 5 14 10 0 6 -5 10 -10 10 -19 0
32 58 61 71 16 6 29 19 29 28 0 18 60 82 60 65 0 -5 14 7 31 26 17 19 28 29
24 23 -3 -7 -2 -13 3 -13 19 0 33 29 36 76 2 44 26 101 83 198 l13 21 0 -21
c0 -12 -7 -27 -15 -34 -25 -21 -19 -40 8 -27 20 9 27 26 41 92 10 44 17 91 17
105 0 14 4 34 8 45 5 11 12 28 15 37 3 11 11 15 21 12 8 -3 15 -1 15 4 0 6 -8
13 -17 15 -11 3 -7 5 10 6 15 0 27 -4 27 -11 0 -9 3 -9 12 0 14 14 3 28 -27
34 -26 4 -31 39 -11 80 21 41 20 55 -4 68 -11 6 -20 20 -20 32 0 11 -17 37
-38 58 l-39 37 -2 179 c-1 99 2 200 8 225 6 24 12 60 15 79 2 19 5 40 6 45 5
19 0 34 -16 49 -11 12 -13 20 -5 33 9 16 10 16 11 -4 0 -13 5 -23 10 -23 6 0
10 11 10 24 0 12 13 37 29 53 15 17 33 43 38 58 9 27 13 29 69 30 33 0 65 4
72 9 24 15 2 23 -43 16 -44 -7 -55 -4 -55 11 0 11 78 32 90 24 23 -14 52 69
30 91 -5 5 -10 26 -12 47 -2 31 -8 42 -30 53 -27 14 -38 34 -18 34 6 0 9 10 9
23 -1 14 -3 16 -6 6 -2 -9 -15 -21 -28 -27 -22 -10 -25 -9 -25 8 0 40 20 69
60 88 22 10 38 21 34 24 -3 4 -12 4 -20 1 -18 -7 -18 16 0 109 8 40 20 105 27
143 6 39 18 86 26 105 20 48 43 207 41 283 0 34 -7 75 -15 90 -8 15 -23 58
-34 95 -14 45 -30 75 -49 92 -16 14 -52 57 -81 95 -28 39 -60 76 -70 83 -11 7
-26 26 -34 43 -9 16 -22 29 -30 29 -8 0 -15 4 -15 9 0 5 -9 11 -20 14 -11 3
-20 12 -20 21 0 17 -165 100 -181 91 -9 -6 -90 7 -159 26 -61 16 -313 17 -386
2z m281 -637 c57 -3 113 -10 124 -15 27 -15 74 -14 89 1 10 10 15 10 22 -2 8
-12 11 -13 19 -1 7 11 15 11 45 0 20 -7 36 -16 36 -21 0 -4 -7 -5 -15 -2 -9 4
-15 0 -15 -9 0 -8 -3 -17 -7 -20 -5 -2 -1 -2 7 0 31 9 35 7 36 -12 1 -11 2
-25 3 -32 1 -6 15 -25 32 -42 23 -24 30 -37 25 -55 -4 -17 -1 -26 11 -30 15
-6 15 -9 3 -16 -9 -6 -23 -2 -42 11 -27 20 -28 20 -28 2 0 -11 -5 -24 -11 -30
-9 -9 -6 -10 11 -6 26 7 52 -19 43 -43 -3 -8 0 -14 6 -14 6 0 11 -7 11 -15 0
-8 -7 -15 -15 -15 -7 0 -18 -7 -22 -15 -6 -10 -35 -17 -96 -21 -48 -4 -90 -10
-92 -15 -3 -4 -14 -5 -25 -2 -21 6 -56 -26 -80 -74 -8 -15 -28 -39 -43 -52
-45 -38 -59 -84 -46 -150 9 -48 16 -58 43 -71 l31 -15 0 42 c0 24 -4 43 -9 43
-4 0 -6 6 -3 14 3 7 1 18 -5 24 -8 8 -7 16 2 28 13 14 15 14 20 0 4 -12 11
-10 39 14 18 17 38 30 44 30 6 0 -4 -11 -23 -25 -39 -29 -50 -43 -50 -67 0
-15 9 -18 53 -19 32 0 45 -3 34 -8 -36 -14 24 -28 106 -25 57 2 88 9 115 24
35 20 40 20 67 6 l30 -16 8 35 c10 38 27 47 27 14 0 -16 5 -20 20 -16 11 3 20
2 21 -1 5 -49 20 -97 32 -105 8 -6 6 -7 -5 -4 -13 5 -17 -1 -17 -26 0 -42 -9
-105 -16 -117 -3 -6 -1 -10 6 -10 9 0 8 -4 -3 -12 -16 -13 -31 -72 -29 -116 0
-13 -3 -21 -8 -18 -19 12 -36 -98 -35 -215 1 -68 -1 -76 -20 -85 -11 -5 -20
-15 -19 -22 2 -7 -8 -12 -22 -12 -14 0 -25 -6 -25 -13 0 -7 -16 -20 -35 -28
l-34 -16 -6 28 c-4 18 -13 29 -23 29 -15 1 -14 3 3 16 11 8 27 19 35 25 13 7
13 10 1 18 -11 7 -8 16 18 42 35 39 38 49 14 49 -22 1 -55 25 -46 33 3 4 1 7
-5 7 -7 0 -12 7 -12 15 0 11 -9 15 -32 14 -19 -1 -50 7 -71 19 -20 12 -39 21
-41 19 -2 -1 -14 10 -26 26 -12 15 -28 27 -35 27 -22 0 -29 20 -11 33 8 7 20
25 26 41 l11 30 -27 -27 c-15 -15 -32 -27 -39 -27 -7 0 -19 -9 -26 -20 -17
-25 -109 -60 -129 -49 -8 4 -32 15 -52 24 -21 9 -38 20 -38 25 0 6 -16 16 -35
24 -27 12 -35 21 -35 41 0 37 17 65 40 65 11 0 20 6 20 14 0 7 9 25 21 40 11
14 17 31 13 37 -4 7 -3 9 3 6 7 -4 15 31 22 96 10 88 9 109 -4 149 -16 46 -79
123 -94 114 -4 -3 -14 10 -21 29 -8 19 -23 43 -34 54 -21 18 -103 45 -121 40
-6 -2 -31 0 -57 5 -39 6 -48 11 -48 28 0 17 -4 19 -26 14 -25 -7 -24 -5 11 28
41 39 55 44 55 20 0 -8 4 -12 10 -9 6 4 5 13 -2 25 -9 13 -16 16 -24 9 -8 -7
-14 -6 -19 1 -3 5 -1 10 5 10 7 0 10 7 7 14 -4 10 -1 13 7 10 9 -3 11 4 8 26
-3 23 0 30 12 30 9 0 16 5 16 10 0 6 -10 10 -22 10 -14 0 -18 3 -11 8 6 4 15
20 18 35 4 15 12 27 17 27 6 0 8 6 5 14 -3 8 0 19 6 24 15 12 95 24 165 26 28
0 52 5 52 10 0 4 6 6 13 3 7 -3 24 1 37 8 16 9 32 10 48 4 13 -5 70 -11 127
-13z m-416 -495 c5 -7 13 -11 19 -7 5 3 12 -1 16 -9 3 -8 17 -15 31 -15 14 0
25 -5 25 -11 0 -5 -4 -8 -8 -5 -15 9 -197 8 -244 -2 -43 -8 -46 -8 -38 8 5 10
6 20 3 24 -3 3 3 6 15 6 12 0 22 4 22 9 0 21 147 22 159 2z m858 -13 c7 -5 15
-20 19 -31 4 -12 15 -34 25 -48 21 -29 17 -39 -11 -32 -11 3 -16 11 -13 19 6
18 -58 46 -70 30 -5 -8 -11 -6 -20 4 -12 15 -69 21 -82 8 -4 -3 -20 -2 -36 4
-16 6 -38 8 -49 5 -11 -3 -20 -1 -20 4 0 5 7 9 15 9 7 0 18 7 23 15 4 9 21 20
38 25 34 11 164 3 181 -12z m-742 -74 l30 -26 -40 23 c-51 28 -51 29 -34 29 8
0 28 -12 44 -26z m-132 -71 c11 -13 29 -23 40 -23 22 0 56 37 57 63 0 23 10
21 43 -9 39 -36 34 -41 -80 -60 -37 -7 -91 9 -128 38 -21 17 -24 23 -13 35 7
8 21 19 33 23 17 6 21 3 23 -19 2 -14 13 -36 25 -48z m67 47 c0 -5 -4 -10 -10
-10 -5 0 -10 5 -10 10 0 6 5 10 10 10 6 0 10 -4 10 -10z m706 -13 l27 -23 -37
-22 c-21 -12 -43 -22 -50 -22 -6 0 -17 -5 -23 -11 -6 -6 -17 -9 -25 -6 -9 3
-7 7 7 12 36 14 55 37 55 67 0 34 10 35 46 5z m-153 -26 c9 -20 17 -40 17 -43
0 -4 -48 5 -99 19 -9 2 -2 13 20 33 19 16 36 30 39 30 3 0 13 -18 23 -39z m72
29 c3 -5 1 -10 -4 -10 -6 0 -11 5 -11 10 0 6 2 10 4 10 3 0 8 -4 11 -10z
m-468 -23 c-5 -15 -29 -16 -34 -2 -2 6 6 11 18 12 12 1 19 -3 16 -10z m-295
-70 c8 -13 151 -16 183 -3 16 6 17 9 5 16 -11 7 -1 10 32 10 36 0 48 -4 52
-17 11 -38 -7 -158 -31 -212 -9 -19 -16 -59 -17 -88 0 -44 4 -57 27 -81 l28
-29 -34 -26 c-41 -31 -123 -78 -134 -76 -4 1 -10 0 -13 -1 -3 -1 -22 -4 -43
-5 -32 -3 -43 1 -72 31 -19 18 -37 34 -39 34 -13 0 -54 50 -45 55 17 11 9 27
-10 22 -22 -5 -34 14 -25 38 4 8 1 15 -5 15 -12 0 -42 62 -46 97 -2 12 -6 35
-10 53 -4 17 -3 36 3 43 5 7 10 32 12 57 1 25 3 53 3 63 2 24 21 15 25 -11 4
-29 19 -28 28 1 4 12 12 26 18 30 15 10 99 -2 108 -16z m-422 -73 c0 -44 -13
-53 -22 -16 -5 18 7 62 17 62 3 0 5 -21 5 -46z m1537 4 c-3 -8 -6 -5 -6 6 -1
11 2 17 5 13 3 -3 4 -12 1 -19z m-807 -38 c0 -5 -5 -10 -11 -10 -5 0 -7 5 -4
10 3 6 8 10 11 10 2 0 4 -4 4 -10z m797 -32 c-3 -7 -5 -2 -5 12 0 14 2 19 5
13 2 -7 2 -19 0 -25z m52 -30 c2 31 29 28 42 -5 5 -16 17 -42 26 -60 16 -30
16 -33 -1 -52 -10 -11 -35 -23 -57 -26 -24 -4 -39 -12 -39 -21 0 -8 -5 -14
-11 -14 -8 0 -9 15 -4 48 4 26 8 58 10 72 1 14 6 43 11 65 l8 40 7 -35 c4 -22
7 -27 8 -12z m-1439 23 c0 -16 -30 -80 -40 -86 -21 -13 -20 24 2 58 22 35 38
47 38 28z m1377 -63 c-3 -8 -6 -5 -6 6 -1 11 2 17 5 13 3 -3 4 -12 1 -19z
m-1367 -45 c0 -38 -18 -43 -44 -14 -16 17 -16 19 4 24 13 3 20 13 20 29 0 18
2 20 10 8 5 -8 10 -30 10 -47z m717 -237 c-3 -7 11 -11 42 -12 25 -1 64 -9 86
-19 22 -10 45 -19 52 -20 7 0 18 -6 25 -13 19 -19 -11 -15 -57 8 -39 20 -80
25 -109 14 -20 -8 -21 -24 -1 -24 24 0 17 -17 -10 -24 -39 -10 -77 3 -70 24 4
13 -2 19 -25 23 -41 9 -38 24 10 38 22 7 40 16 40 21 0 5 5 6 11 3 6 -4 8 -12
6 -19z m383 -104 c0 -5 -7 -17 -15 -28 -14 -18 -14 -17 -4 9 12 27 19 34 19
19z m-225 -20 c19 -7 19 -9 5 -37 -11 -21 -21 -29 -35 -27 -20 4 -20 4 0 -11
10 -8 25 -13 32 -10 7 3 13 1 13 -4 0 -21 -78 -33 -190 -31 -113 3 -115 3
-113 26 2 16 -5 26 -22 34 -24 11 -40 36 -30 46 3 3 5 0 5 -7 0 -9 5 -9 20 2
15 10 32 11 77 4 44 -8 73 -6 123 6 72 17 86 18 115 9z m70 -12 c3 -5 1 -10
-4 -10 -6 0 -11 5 -11 10 0 6 2 10 4 10 3 0 8 -4 11 -10z m-8 -62 c-3 -8 -6
-5 -6 6 -1 11 2 17 5 13 3 -3 4 -12 1 -19z m3 -28 c0 -5 -2 -10 -4 -10 -3 0
-8 5 -11 10 -3 6 -1 10 4 10 6 0 11 -4 11 -10z m58 -25 c7 -14 12 -33 12 -42
0 -14 2 -14 14 3 19 25 30 13 33 -36 2 -31 0 -38 -12 -33 -19 7 -45 -14 -45
-36 -1 -21 -58 -84 -70 -76 -5 3 -19 -4 -31 -16 l-22 -22 6 22 c4 16 -1 26
-21 39 -20 13 -26 14 -30 4 -3 -10 -8 -10 -21 2 -14 13 -19 12 -40 -5 -20 -17
-21 -19 -5 -19 15 0 16 -2 5 -9 -19 -12 -34 -5 -73 31 -18 17 -34 25 -36 19
-2 -6 -14 -11 -27 -11 -14 0 -32 -9 -42 -19 -10 -11 -34 -22 -53 -26 -31 -5
-36 -3 -47 20 -6 15 -9 34 -6 42 5 12 2 15 -9 10 -13 -4 -15 -1 -8 21 6 22 12
27 35 25 16 -1 34 2 41 8 7 6 22 8 34 4 14 -5 20 -2 20 9 0 10 10 16 28 17
148 8 227 21 227 38 0 8 6 16 13 19 6 2 12 -3 12 -12 0 -9 7 -16 16 -16 11 0
15 6 11 20 -4 17 -1 19 18 14 18 -4 25 -1 30 15 9 29 29 26 43 -4z m99 -61
c-3 -3 -12 -4 -19 -1 -8 3 -5 6 6 6 11 1 17 -2 13 -5z m118 -227 c7 -8 14 -40
15 -73 3 -89 6 -106 19 -139 7 -16 10 -39 7 -51 -4 -13 -1 -24 6 -26 6 -2 13
-31 16 -66 2 -34 8 -59 13 -56 11 6 0 -52 -17 -91 -13 -31 -30 -71 -80 -188
-16 -38 -36 -76 -44 -85 -18 -21 -60 -105 -60 -121 0 -22 -110 -128 -138 -134
-15 -3 -48 -25 -73 -49 -25 -25 -53 -47 -63 -51 -10 -4 -16 -13 -13 -21 3 -8
-3 -22 -14 -32 -15 -13 -16 -19 -7 -26 10 -6 9 -8 -4 -8 -9 0 -26 16 -38 35
-12 19 -26 35 -31 35 -5 0 -9 6 -9 13 0 12 -49 69 -73 84 -20 13 -107 140
-107 157 0 9 -3 16 -8 16 -4 0 -13 15 -21 33 -8 17 -32 52 -53 76 -21 24 -38
49 -38 56 0 6 -9 20 -20 30 -11 10 -20 22 -20 27 0 9 -39 68 -51 78 -9 7 -29
47 -29 57 0 4 4 2 9 -6 7 -10 9 -7 8 12 -1 14 -5 23 -9 20 -5 -2 -8 3 -8 11 0
10 -6 13 -15 10 -10 -4 -15 0 -15 11 0 9 5 13 10 10 13 -8 13 1 0 26 -7 13 -7
19 0 19 5 0 10 -5 10 -12 0 -6 3 -9 6 -5 3 3 -3 19 -15 35 -21 30 -18 50 6 31
16 -14 16 -12 2 68 -13 74 0 123 32 123 25 0 30 1 57 11 17 6 22 5 22 -6 0 -8
5 -15 11 -15 5 0 8 -4 4 -9 -3 -5 -1 -12 4 -15 5 -4 12 -25 16 -49 6 -35 48
-130 65 -147 3 -3 6 -13 8 -24 2 -10 26 -39 54 -65 44 -40 57 -47 105 -51 30
-3 56 -4 58 -2 9 9 -9 32 -25 32 -11 0 -22 5 -25 11 -5 6 -11 4 -19 -7 -12
-16 -13 -16 -18 3 -5 18 -1 20 31 16 20 -2 60 -5 88 -6 29 -2 56 -6 59 -10 4
-4 13 -2 20 4 8 6 20 9 27 6 15 -6 41 29 28 38 -5 3 -11 0 -13 -7 -3 -8 -6 -9
-11 -1 -4 6 4 22 17 36 l24 26 -28 -5 c-25 -5 -27 -4 -23 18 4 22 67 68 92 68
20 0 11 -25 -11 -35 -30 -14 -34 -33 -7 -37 29 -4 37 -28 10 -28 -28 0 -39
-29 -18 -45 11 -8 15 -22 12 -47 -4 -26 -1 -38 10 -42 8 -3 15 -2 15 3 0 4 11
14 25 21 33 17 65 73 58 99 -3 12 -1 21 4 21 5 0 10 6 11 13 0 13 2 19 26 107
8 32 10 57 5 61 -5 3 -2 14 6 25 13 18 14 18 15 1 0 -10 5 -15 11 -12 5 4 9
17 7 30 -1 12 3 30 11 39 8 9 11 19 7 23 -3 4 -13 -2 -20 -13 -14 -18 -15 -18
-22 -1 -3 10 -5 20 -3 22 26 29 115 124 117 125 2 0 9 -6 17 -13z m-320 -157
c3 -5 17 -10 31 -10 28 0 28 0 9 -46 -11 -28 -19 -35 -32 -30 -10 4 -14 4 -10
0 9 -9 -23 -45 -34 -38 -5 3 -6 -2 -3 -10 4 -10 1 -16 -7 -16 -16 0 -39 -44
-39 -72 0 -47 -50 -25 -79 35 -8 15 -19 27 -24 27 -12 0 -57 42 -57 54 0 4
-12 17 -26 29 -23 17 -24 21 -10 29 9 5 16 16 16 23 0 12 16 15 73 16 39 0 92
4 117 8 65 12 68 12 75 1z m392 -92 c-3 -7 -5 -2 -5 12 0 14 2 19 5 13 2 -7 2
-19 0 -25z m-347 -28 c0 -5 -9 -10 -21 -10 -11 0 -17 5 -14 10 3 6 13 10 21
10 8 0 14 -4 14 -10z m-756 -108 l24 -71 -26 2 c-19 2 -27 8 -28 22 -1 11 -4
32 -9 48 -7 26 1 84 11 75 2 -3 15 -37 28 -76z m456 48 c0 -5 6 -10 13 -10 7
0 22 -7 33 -15 18 -14 18 -14 -8 -15 -15 0 -40 11 -55 25 -27 24 -27 24 -5 25
12 0 22 -4 22 -10z m-583 -137 c-3 -10 -5 -2 -5 17 0 19 2 27 5 18 2 -10 2
-26 0 -35z m80 15 c-3 -8 -6 -5 -6 6 -1 11 2 17 5 13 3 -3 4 -12 1 -19z m1136
-153 c-3 -9 -8 -14 -10 -11 -3 3 -2 9 2 15 9 16 15 13 8 -4z m-799 -325 c-6
-5 -24 21 -24 34 0 6 6 1 14 -10 8 -10 12 -21 10 -24z m147 -133 c25 -19 39
-51 28 -68 -12 -19 -11 -29 1 -29 6 0 10 7 10 15 0 8 5 15 10 15 11 0 13 -11
4 -34 -4 -11 -13 -14 -32 -9 -22 5 -24 3 -20 -15 6 -20 5 -21 -15 -7 -25 17
-30 63 -10 83 15 16 17 42 3 42 -5 0 -10 5 -10 10 0 13 11 12 31 -3z m-716 -7
c3 -5 1 -10 -4 -10 -6 0 -11 5 -11 10 0 6 2 10 4 10 3 0 8 -4 11 -10z m583
-119 c3 -8 -1 -12 -9 -9 -7 2 -15 10 -17 17 -3 8 1 12 9 9 7 -2 15 -10 17 -17z
m250 -32 c24 -42 22 -49 -6 -21 -10 9 -28 23 -40 31 -24 17 -22 26 5 28 12 1
27 -13 41 -38z m-188 -8 c0 5 3 9 8 9 4 0 8 -18 9 -40 2 -22 -2 -40 -8 -40 -6
0 -7 -5 -4 -10 4 -6 11 -8 16 -5 5 4 9 1 9 -4 0 -13 -2 -13 -52 -16 -35 -2
-38 0 -38 24 1 22 2 24 11 9 13 -24 39 -23 39 1 0 32 -11 51 -31 51 -12 0 -16
-5 -13 -15 4 -8 2 -15 -4 -15 -11 0 -24 39 -17 51 3 4 21 3 40 -1 20 -4 35 -4
35 1z m150 -28 c0 -7 -39 17 -46 28 -3 6 5 3 20 -6 14 -10 26 -19 26 -22z
m-65 -19 c8 -20 17 -47 19 -60 4 -21 2 -22 -15 -11 -23 15 -33 40 -24 67 4 11
2 20 -4 20 -6 0 -11 5 -11 10 0 23 21 7 35 -26z m51 -12 c10 -10 27 -21 37
-25 9 -3 17 -11 17 -17 0 -13 -13 -13 -27 1 -9 9 -11 7 -6 -9 6 -25 -13 -66
-20 -42 -38 120 -38 126 -1 92z m-16 -164 c0 -14 -18 -9 -24 8 -11 28 -6 39 9
20 8 -11 15 -23 15 -28z m-52 14 c2 -8 -14 -12 -57 -12 -53 0 -71 7 -57 21 10
10 110 2 114 -9z m-88 -176 c0 -17 25 -15 42 2 17 17 35 15 42 -4 10 -26 -2
-34 -52 -30 -39 3 -48 8 -50 25 -2 12 1 21 7 21 6 0 11 -6 11 -14z m-106 -31
c3 -8 1 -15 -4 -15 -6 0 -10 7 -10 15 0 8 2 15 4 15 2 0 6 -7 10 -15z m186
-50 c0 -14 -4 -25 -9 -25 -5 0 -8 11 -7 25 1 33 16 33 16 0z m-80 -4 c0 -11
-4 -23 -10 -26 -6 -4 -10 5 -10 19 0 14 5 26 10 26 6 0 10 -9 10 -19z m-133
-43 c-2 -13 -4 -5 -4 17 -1 22 1 32 4 23 2 -10 2 -28 0 -40z m32 -20 l-2 -73
-7 65 c-7 60 -6 80 6 80 2 0 3 -33 3 -72z m11 -148 c0 -5 -4 -10 -10 -10 -5 0
-10 5 -10 10 0 6 5 10 10 10 6 0 10 -4 10 -10z m687 -132 c-3 -7 -5 -2 -5 12
0 14 2 19 5 13 2 -7 2 -19 0 -25z m-177 -44 c0 -8 -4 -14 -10 -14 -5 0 -10 9
-10 21 0 11 5 17 10 14 6 -3 10 -13 10 -21z m-13 -66 c-3 -8 -6 -5 -6 6 -1 11
2 17 5 13 3 -3 4 -12 1 -19z m-264 -155 c-5 -11 -8 -12 -13 -2 -5 7 -6 19 -3
26 5 11 8 12 13 2 5 -7 6 -19 3 -26z"/>
<path d="M2480 3411 c0 -5 5 -13 10 -16 6 -3 10 -2 10 4 0 5 -4 13 -10 16 -5
3 -10 2 -10 -4z"/>
<path d="M2032 3228 c2 -13 11 -24 23 -26 11 -2 28 -11 38 -20 9 -8 17 -12 17
-8 0 19 -24 47 -51 62 -30 15 -30 15 -27 -8z"/>
<path d="M2000 3119 c-17 -11 -28 -24 -25 -29 8 -13 42 -13 50 0 3 6 15 10 26
10 10 0 19 6 19 14 0 23 -36 25 -70 5z"/>
<path d="M1783 3123 c-21 -8 -15 -33 7 -33 11 0 20 -4 20 -10 0 -5 9 -10 20
-10 11 0 20 -4 20 -10 0 -17 63 -28 78 -13 7 7 20 13 28 13 8 0 12 5 9 10 -4
6 -12 7 -18 3 -22 -15 -87 -1 -87 19 0 25 -46 44 -77 31z"/>
<path d="M2426 2958 c-9 -12 -16 -29 -16 -36 0 -22 25 -8 28 16 2 12 8 22 13
22 5 0 9 5 9 10 0 17 -18 11 -34 -12z"/>
<path d="M2375 2890 c-3 -5 1 -10 10 -10 9 0 13 5 10 10 -3 6 -8 10 -10 10 -2
0 -7 -4 -10 -10z"/>
<path d="M1418 3613 c7 -3 16 -2 19 1 4 3 -2 6 -13 5 -11 0 -14 -3 -6 -6z"/>
<path d="M2661 3204 c0 -11 3 -14 6 -6 3 7 2 16 -1 19 -3 4 -6 -2 -5 -13z"/>
<path d="M2406 2363 c-3 -3 -6 -15 -6 -25 0 -10 -7 -18 -17 -18 -9 0 -14 -2
-11 -5 12 -13 58 8 58 25 0 20 -13 33 -24 23z"/>
<path d="M1753 1886 c4 -10 7 -23 7 -29 0 -7 13 -18 28 -25 19 -8 28 -19 28
-34 -1 -11 5 -23 12 -25 6 -3 12 4 13 14 0 16 1 16 8 -2 5 -11 7 -23 5 -26 -5
-10 47 -30 99 -38 36 -6 47 -5 47 5 0 8 -3 13 -7 12 -13 -4 -53 36 -53 52 0
10 -16 20 -44 28 -24 6 -51 18 -59 27 -9 8 -20 15 -25 15 -5 0 -22 10 -38 22
-24 19 -27 20 -21 4z"/>
<path d="M2161 1849 c-34 -22 -60 -43 -58 -46 3 -2 14 0 25 6 12 6 28 11 38
11 15 0 15 -2 -2 -17 -20 -19 -30 -78 -14 -88 6 -4 10 5 10 18 0 13 12 36 26
50 18 18 25 34 21 47 -3 11 -2 20 2 20 3 0 12 9 19 20 18 29 3 25 -67 -21z"/>
<path d="M1940 1850 c0 -5 7 -10 16 -10 8 0 12 5 9 10 -3 6 -10 10 -16 10 -5
0 -9 -4 -9 -10z"/>
<path d="M2027 1750 c-19 -19 -14 -50 10 -50 17 0 86 50 79 58 -14 13 -72 8
-89 -8z"/>
<path d="M1906 1691 c5 -5 20 -12 34 -16 22 -7 23 -6 11 9 -7 9 -23 16 -34 16
-13 0 -17 -4 -11 -9z"/>
<path d="M1818 1643 c7 -3 16 -2 19 1 4 3 -2 6 -13 5 -11 0 -14 -3 -6 -6z"/>
<path d="M1905 1629 c-4 -11 -4 -23 0 -27 7 -7 25 17 25 36 0 20 -18 14 -25
-9z"/>
<path d="M1930 1610 c0 -5 7 -10 15 -10 8 0 15 5 15 10 0 6 -7 10 -15 10 -8 0
-15 -4 -15 -10z"/>
<path d="M2077 1586 c-3 -8 -3 -17 0 -20 7 -7 33 13 33 25 0 15 -27 10 -33 -5z"/>
<path d="M1934 1566 c-8 -21 15 -51 29 -37 5 5 16 7 23 4 8 -3 14 1 14 10 0 8
-8 17 -17 21 -10 3 -24 9 -30 12 -7 3 -16 -2 -19 -10z"/>
<path d="M2805 3456 c-11 -8 -20 -27 -21 -45 l-2 -30 19 22 c10 12 19 18 20
12 1 -5 2 -14 3 -20 3 -24 21 -14 29 16 14 55 -7 75 -48 45z"/>
<path d="M2715 3330 c3 -5 8 -10 11 -10 2 0 4 5 4 10 0 6 -5 10 -11 10 -5 0
-7 -4 -4 -10z"/>
<path d="M1125 3090 c3 -5 8 -10 11 -10 2 0 4 5 4 10 0 6 -5 10 -11 10 -5 0
-7 -4 -4 -10z"/>
<path d="M2641 1982 c-1 -13 -5 -20 -11 -17 -5 3 -10 2 -10 -3 0 -12 28 -24
33 -14 2 4 1 18 -4 32 -7 25 -7 25 -8 2z"/>
<path d="M2780 1945 c0 -8 4 -15 9 -15 9 0 67 -229 77 -302 6 -49 -26 -200
-44 -206 -7 -2 -12 6 -12 17 0 11 -10 26 -22 32 -29 16 -144 39 -193 39 -45 0
-115 -17 -115 -28 0 -4 -13 -22 -30 -40 -23 -26 -44 -36 -95 -47 -36 -7 -74
-11 -85 -8 -14 4 -20 0 -20 -11 0 -10 6 -13 18 -9 24 8 1 -15 -30 -31 -12 -6
-28 -23 -35 -36 -6 -14 -32 -44 -57 -68 -25 -24 -43 -49 -40 -56 6 -15 -84
-141 -93 -132 -3 3 11 28 31 57 21 28 35 53 33 55 -6 6 -67 -71 -67 -84 0 -6
-6 -17 -13 -24 -6 -7 -20 -36 -30 -65 l-18 -51 24 -44 c15 -27 31 -43 43 -43
10 0 19 -7 19 -15 0 -9 -7 -14 -17 -12 -25 4 -23 -14 2 -21 24 -6 27 -35 5
-43 -14 -6 -14 -8 0 -18 16 -12 29 -173 13 -182 -4 -3 -8 9 -8 25 0 17 -4 31
-10 31 -6 0 -10 -32 -10 -76 0 -52 3 -73 11 -68 6 3 9 17 6 30 -2 14 0 27 4
30 5 3 9 -4 9 -16 0 -41 16 -56 57 -53 21 2 94 3 162 2 107 0 123 2 118 16 -4
8 -3 23 1 33 5 13 8 8 13 -18 5 -33 6 -32 12 20 8 70 24 353 20 361 -1 4 -97
6 -213 4 l-210 -2 21 23 c12 13 31 23 43 23 87 0 360 12 364 16 3 2 13 60 23
127 10 68 23 143 28 168 20 92 19 95 -52 98 -34 1 -71 5 -81 8 -19 6 -19 7 -2
20 13 9 38 11 83 7 72 -5 83 1 83 48 0 30 24 57 35 39 4 -6 4 -29 0 -50 l-7
-40 56 -1 c31 -1 68 -3 84 -5 15 -1 73 -7 129 -11 l101 -8 6 35 c3 19 6 99 6
176 0 133 -1 142 -20 147 -30 8 -26 37 5 37 19 0 29 -9 42 -35 l17 -35 98 0
c60 0 106 5 118 12 16 10 23 9 43 -10 29 -28 32 -28 33 3 1 14 -2 25 -7 25 -5
0 -28 12 -51 28 -22 15 -48 32 -57 37 -9 6 -30 20 -47 32 -16 12 -36 21 -44
21 -39 -2 -52 3 -46 17 7 19 -3 19 -25 -1 -10 -9 -15 -22 -12 -30 3 -8 1 -14
-5 -14 -17 0 -19 24 -4 40 13 13 12 15 -9 20 -15 4 -23 12 -21 23 2 11 -4 17
-16 17 -31 0 -104 40 -109 61 -6 22 -23 26 -23 4z m124 -101 c12 -4 16 -20 16
-57 0 -28 -2 -48 -4 -46 -2 2 -14 28 -25 57 -20 51 -18 58 13 46z m157 -71
c13 -16 12 -17 -3 -4 -17 13 -22 21 -14 21 2 0 10 -8 17 -17z m32 -90 c-7 -2
-21 -2 -30 0 -10 3 -4 5 12 5 17 0 24 -2 18 -5z m-193 -319 c0 -8 -5 -12 -10
-9 -6 4 -8 11 -5 16 9 14 15 11 15 -7z m-490 -133 c0 -21 -2 -23 -10 -11 -6
10 -10 11 -10 3 0 -7 -4 -13 -10 -13 -10 0 -14 33 -5 42 15 14 35 2 35 -21z
m-72 2 c-2 -11 -14 -16 -36 -17 -35 -1 -39 3 -20 22 19 19 60 15 56 -5z m103
-16 c-8 -8 -11 -7 -11 4 0 20 13 34 18 19 3 -7 -1 -17 -7 -23z m-41 -41 c0
-39 -20 -94 -36 -100 -14 -5 -15 0 -10 41 4 27 9 55 12 64 6 23 34 19 34 -5z
m-74 -1 c4 -8 3 -35 0 -58 l-7 -44 -49 0 -50 0 0 43 c0 66 6 74 56 74 31 0 46
-5 50 -15z m-116 -205 c0 -5 -5 -10 -11 -10 -5 0 -7 5 -4 10 3 6 8 10 11 10 2
0 4 -4 4 -10z m50 -2 c0 -4 -7 -8 -15 -8 -8 0 -15 4 -15 8 0 5 7 9 15 9 8 0
15 -4 15 -9z m-20 -128 c0 -5 -13 -10 -30 -10 -16 0 -30 5 -30 10 0 6 14 10
30 10 17 0 30 -4 30 -10z m110 0 c0 -5 -7 -10 -15 -10 -8 0 -15 5 -15 10 0 6
7 10 15 10 8 0 15 -4 15 -10z m-82 -42 c15 0 22 -5 20 -16 -4 -20 -87 -29 -99
-10 -19 29 -10 41 24 34 17 -4 42 -7 55 -8z m80 -15 c-5 -25 -28 -28 -28 -4 0
12 6 21 16 21 9 0 14 -7 12 -17z m-93 -64 c-4 -6 -14 -8 -22 -5 -12 5 -14 -1
-11 -34 2 -28 0 -39 -8 -36 -6 2 -11 -3 -10 -12 0 -9 -8 -18 -18 -20 -17 -4
-18 0 -13 34 4 22 7 49 7 62 0 19 5 22 41 22 26 0 38 -4 34 -11z m25 -89 c0
-5 -4 -10 -10 -10 -5 0 -10 5 -10 10 0 6 5 10 10 10 6 0 10 -4 10 -10z"/>
<path d="M2256 1134 c-4 -14 -5 -29 -2 -31 3 -3 8 7 12 21 3 15 4 29 1 32 -2
3 -8 -7 -11 -22z"/>
<path d="M2290 1140 c0 -11 5 -20 10 -20 6 0 10 9 10 20 0 11 -4 20 -10 20 -5
0 -10 -9 -10 -20z"/>
<path d="M2560 1940 c0 -5 7 -10 15 -10 8 0 15 5 15 10 0 6 -7 10 -15 10 -8 0
-15 -4 -15 -10z"/>
<path d="M2729 1948 c0 -2 -3 -29 -5 -60 -3 -47 -1 -59 13 -66 31 -16 73 -23
73 -12 0 5 -6 10 -14 10 -8 0 -18 5 -22 12 -5 7 -2 9 8 6 10 -4 15 -1 14 10
-2 32 -60 118 -67 100z"/>
<path d="M2600 1930 c0 -5 4 -10 9 -10 5 0 17 -7 25 -16 10 -9 16 -11 16 -4 0
14 -25 40 -39 40 -6 0 -11 -4 -11 -10z"/>
<path d="M2696 1893 c9 -65 14 -67 14 -5 0 30 -4 52 -11 52 -7 0 -8 -16 -3
-47z"/>
<path d="M2561 1881 c-10 -6 -9 -10 3 -14 8 -3 18 -2 21 3 8 13 -9 20 -24 11z"/>
<path d="M2610 1861 c0 -5 5 -11 11 -13 17 -6 22 -70 7 -80 -10 -6 -10 -8 0
-8 6 0 12 -9 12 -19 0 -11 5 -23 11 -27 9 -5 10 6 4 42 -4 27 -7 59 -7 71 1
13 -7 27 -18 33 -12 6 -20 7 -20 1z"/>
<path d="M1362 1837 c-6 -7 -9 -28 -8 -47 2 -19 4 -48 5 -64 1 -37 8 -31 15
14 3 19 12 40 20 46 17 12 22 34 8 34 -4 0 -13 -5 -20 -12 -6 -6 -15 -8 -19
-4 -5 4 3 16 16 27 16 13 18 19 8 19 -8 0 -19 -6 -25 -13z"/>
<path d="M1436 1815 c8 -50 24 -70 24 -29 0 17 -7 39 -15 50 -14 18 -15 16 -9
-21z"/>
<path d="M2560 1840 c0 -5 5 -10 10 -10 6 0 10 5 10 10 0 6 -4 10 -10 10 -5 0
-10 -4 -10 -10z"/>
<path d="M976 1795 c-27 -19 -54 -35 -59 -35 -6 0 -18 -7 -27 -15 -18 -16
-136 -83 -162 -92 -12 -3 -18 -16 -18 -34 0 -25 4 -29 27 -29 29 0 103 46 103
64 0 6 7 3 15 -7 7 -11 32 -21 54 -24 37 -5 41 -4 41 16 0 13 4 19 10 16 6 -4
8 -11 5 -16 -4 -5 5 -9 20 -9 34 0 46 33 43 126 -1 41 -2 74 -2 74 -1 0 -23
-16 -50 -35z m31 -47 c-3 -7 -5 -2 -5 12 0 14 2 19 5 13 2 -7 2 -19 0 -25z
m-27 12 c0 -5 -8 -10 -17 -10 -15 0 -16 2 -3 10 19 12 20 12 20 0z m-225 -140
c3 -5 1 -10 -4 -10 -6 0 -11 5 -11 10 0 6 2 10 4 10 3 0 8 -4 11 -10z"/>
<path d="M2702 1770 c0 -19 2 -27 5 -17 2 9 2 25 0 35 -3 9 -5 1 -5 -18z"/>
<path d="M2732 1748 c5 -18 12 -43 15 -55 3 -13 10 -20 19 -16 8 3 14 0 14 -6
0 -6 5 -11 10 -11 21 0 9 31 -15 40 -14 5 -25 12 -25 16 0 3 6 4 14 1 20 -8
28 4 15 20 -6 7 -8 13 -3 13 12 0 -30 29 -43 30 -9 0 -9 -8 -1 -32z"/>
<path d="M1251 1744 c-12 -15 -21 -35 -21 -45 0 -11 -5 -19 -11 -19 -6 0 -9 7
-5 15 3 9 0 15 -9 15 -19 0 -28 -17 -13 -24 10 -3 8 -9 -4 -19 -10 -8 -18 -19
-18 -25 0 -18 24 -20 37 -3 11 14 14 14 22 1 6 -8 13 -32 16 -53 6 -31 9 -36
21 -26 11 9 14 8 14 -4 0 -9 -9 -19 -20 -22 -22 -7 -26 -21 -9 -27 18 -6 -11
-47 -35 -50 -11 -2 -21 -12 -23 -26 -3 -20 0 -21 17 -12 10 6 23 9 28 8 4 -2
31 8 60 21 43 20 52 29 51 50 0 26 0 26 -9 4 -5 -13 -16 -23 -25 -23 -13 0
-15 10 -9 68 4 37 11 70 17 74 6 3 7 29 3 64 -7 59 -15 79 -23 57 -8 -21 -26
-14 -20 7 7 28 -8 25 -32 -6z"/>
<path d="M633 1652 c-73 -37 -133 -72 -133 -79 0 -6 -5 -15 -12 -19 -7 -5 -9
-2 -5 9 5 14 2 14 -39 -1 -24 -9 -44 -20 -44 -24 0 -4 7 -5 16 -1 9 3 20 0 25
-8 7 -11 12 -12 29 -1 11 6 26 12 34 12 19 0 76 48 76 65 0 7 21 20 48 29 26
10 54 21 62 26 8 6 32 19 53 30 35 19 47 31 30 29 -5 0 -68 -30 -140 -67z
m-89 -67 c-7 -16 -24 -21 -24 -6 0 8 7 13 27 20 1 1 0 -6 -3 -14z"/>
<path d="M2710 1680 c4 -22 10 -43 13 -47 9 -8 -4 71 -13 80 -4 5 -4 -10 0
-33z"/>
<path d="M3277 1709 c7 -7 15 -10 18 -7 3 3 -2 9 -12 12 -14 6 -15 5 -6 -5z"/>
<path d="M1371 1664 c0 -11 3 -14 6 -6 3 7 2 16 -1 19 -3 4 -6 -2 -5 -13z"/>
<path d="M3345 1670 c3 -4 14 -10 25 -13 11 -3 18 -2 15 3 -3 4 -14 10 -25 13
-11 3 -18 2 -15 -3z"/>
<path d="M2487 1663 c-5 -7 -17 -13 -28 -13 -22 0 -53 -59 -43 -83 3 -8 1 -18
-5 -22 -6 -3 -11 -17 -11 -31 0 -14 -7 -38 -15 -53 -12 -24 -12 -31 -1 -40 10
-8 18 -5 32 11 18 21 18 22 0 8 -17 -13 -18 -13 -14 5 2 13 10 19 22 17 24 -4
56 26 56 53 0 11 5 26 11 32 5 5 9 37 7 69 -2 35 -6 54 -11 47z m-7 -37 c0
-11 -19 -15 -25 -6 -3 5 1 10 9 10 9 0 16 -2 16 -4z m0 -47 c0 -6 -4 -7 -10
-4 -5 3 -10 11 -10 16 0 6 5 7 10 4 6 -3 10 -11 10 -16z m-26 -25 c9 -3 16
-10 16 -16 0 -5 -5 -6 -11 -2 -6 3 -15 0 -20 -7 -6 -10 -9 -8 -9 9 0 24 1 25
24 16z m6 -53 c0 -5 -7 -11 -15 -15 -9 -3 -15 0 -15 9 0 8 7 15 15 15 8 0 15
-4 15 -9z"/>
<path d="M2565 1660 c-3 -5 -1 -10 4 -10 6 0 11 5 11 10 0 6 -2 10 -4 10 -3 0
-8 -4 -11 -10z"/>
<path d="M2767 1640 c3 -14 7 -49 7 -79 1 -38 6 -56 16 -59 8 -3 20 -12 27
-21 14 -18 16 -11 13 33 -1 16 4 33 12 38 10 7 10 10 -4 19 -10 5 -18 21 -18
35 0 20 -4 24 -18 20 -13 -5 -22 1 -30 16 -12 23 -12 23 -5 -2z"/>
<path d="M3301 1645 c4 -18 19 -25 87 -38 43 -9 33 9 -10 19 -18 3 -43 14 -56
22 -23 15 -24 14 -21 -3z"/>
<path d="M3453 1616 c21 -14 55 -28 75 -31 29 -3 33 -2 19 6 -9 6 -22 7 -27 4
-6 -3 -13 0 -16 8 -3 9 -16 18 -29 21 -13 3 -31 9 -42 12 -10 4 -1 -5 20 -20z"/>
<path d="M1382 1610 c0 -14 2 -19 5 -12 2 6 2 18 0 25 -3 6 -5 1 -5 -13z"/>
<path d="M2560 1615 c0 -8 5 -15 10 -15 6 0 10 7 10 15 0 8 -4 15 -10 15 -5 0
-10 -7 -10 -15z"/>
<path d="M2968 1596 c2 -20 8 -39 14 -42 5 -3 4 -12 -4 -21 -11 -14 -10 -15
11 -8 l24 7 -21 -22 c-11 -12 -23 -39 -26 -59 -9 -52 -3 -131 9 -131 20 -1
140 -18 155 -22 8 -3 12 -3 8 -1 -14 8 -8 23 8 23 9 0 18 -9 21 -20 6 -23 33
-27 33 -5 0 9 6 12 16 8 11 -4 12 -8 4 -13 -8 -5 -7 -9 5 -14 25 -9 36 -7 34
7 -1 6 -1 21 0 32 1 15 6 12 19 -15 l16 -35 4 45 c2 24 -1 72 -7 105 -6 34
-11 84 -11 112 0 69 -27 103 -80 103 -21 0 -42 -5 -46 -11 -7 -11 -84 -8 -160
7 -30 6 -30 5 -26 -30z m158 -6 c54 0 40 -17 -16 -19 -40 -1 -50 2 -50 15 0
11 5 14 16 10 9 -3 31 -6 50 -6z m36 -45 c10 -14 -12 -25 -53 -25 -23 0 -39 5
-42 14 -3 8 -4 16 -2 18 8 8 90 2 97 -7z m-152 -89 c-7 -7 -10 1 -9 25 0 32 1
33 10 10 6 -16 6 -28 -1 -35z m163 -8 c6 -36 -3 -55 -17 -40 -4 4 -13 7 -19 7
-7 0 -11 11 -10 23 2 14 -3 22 -12 22 -8 0 -15 -9 -15 -20 0 -11 -4 -20 -10
-20 -5 0 -10 9 -10 19 0 11 -3 27 -7 36 -5 15 -1 16 23 11 16 -3 36 -2 44 4
19 12 26 3 33 -42z m57 -9 c0 -30 -3 -37 -15 -33 -8 4 -15 13 -15 21 0 8 5 11
11 7 8 -5 8 -1 0 14 -6 11 -11 28 -11 38 0 13 3 14 15 4 9 -7 15 -29 15 -51z"/>
<path d="M3140 1454 c0 -8 5 -12 10 -9 6 3 10 10 10 16 0 5 -4 9 -10 9 -5 0
-10 -7 -10 -16z"/>
<path d="M621 1609 c-18 -6 -31 -13 -28 -16 9 -9 77 7 77 17 0 12 -4 11 -49
-1z"/>
<path d="M988 1596 c-28 -25 -35 -25 -151 -10 -39 5 -52 2 -69 -12 -11 -11
-29 -18 -39 -16 -10 2 -19 -3 -20 -10 -7 -89 -8 -216 -3 -266 l6 -63 56 3 c53
3 57 5 62 30 4 24 7 25 23 13 13 -10 15 -14 5 -18 -7 -3 1 -6 17 -6 17 -1 43
6 59 14 15 8 39 15 51 15 22 0 23 2 17 63 -5 58 -4 61 12 48 12 -10 14 -17 6
-25 -14 -14 -12 -26 5 -26 9 0 15 -9 15 -25 0 -14 4 -25 9 -25 6 0 8 15 5 33
-5 39 -24 269 -24 291 0 22 -10 20 -42 -8z m-18 -46 c0 -5 -4 -10 -10 -10 -5
0 -10 5 -10 10 0 6 5 10 10 10 6 0 10 -4 10 -10z m-50 -10 c0 -5 -4 -10 -10
-10 -5 0 -10 5 -10 10 0 6 5 10 10 10 6 0 10 -4 10 -10z m-181 -40 c1 24 4 31
12 23 14 -14 1 -80 -17 -87 -11 -4 -14 6 -13 52 2 55 2 56 9 17 l7 -40 2 35z
m231 4 c0 -8 -4 -14 -10 -14 -5 0 -10 9 -10 21 0 11 5 17 10 14 6 -3 10 -13
10 -21z m-44 -12 c-3 -5 -27 -13 -53 -17 -38 -5 -44 -9 -30 -17 12 -6 28 -6
47 0 26 9 28 8 32 -16 6 -42 0 -56 -32 -74 -39 -22 -70 -13 -72 21 0 14 -2 33
-2 41 -1 8 4 29 10 45 10 24 20 31 51 35 40 6 60 -1 49 -18z m50 -38 c-3 -9
-6 -29 -6 -45 0 -16 -4 -29 -10 -29 -5 0 -10 20 -10 45 0 35 4 45 16 45 11 0
14 -5 10 -16z m54 -31 c0 -7 -4 -13 -10 -13 -5 0 -10 12 -10 28 0 21 2 24 10
12 5 -8 10 -21 10 -27z m-53 -135 c-3 -8 -6 -5 -6 6 -1 11 2 17 5 13 3 -3 4
-12 1 -19z"/>
<path d="M858 1433 c7 -3 16 -2 19 1 4 3 -2 6 -13 5 -11 0 -14 -3 -6 -6z"/>
<path d="M880 1409 c0 -5 5 -7 10 -4 6 3 10 8 10 11 0 2 -4 4 -10 4 -5 0 -10
-5 -10 -11z"/>
<path d="M2738 1583 c5 -21 7 -23 10 -9 2 10 0 22 -6 28 -6 6 -7 0 -4 -19z"/>
<path d="M1480 1591 c0 -13 29 -35 37 -28 7 8 -15 37 -28 37 -5 0 -9 -4 -9 -9z"/>
<path d="M1332 1560 c0 -14 2 -19 5 -12 2 6 2 18 0 25 -3 6 -5 1 -5 -13z"/>
<path d="M1425 1570 c3 -5 14 -10 23 -10 15 0 15 2 2 10 -20 13 -33 13 -25 0z"/>
<path d="M2560 1565 c0 -8 5 -15 10 -15 6 0 10 7 10 15 0 8 -4 15 -10 15 -5 0
-10 -7 -10 -15z"/>
<path d="M3321 1525 c10 -30 19 -61 19 -70 0 -8 5 -15 10 -15 6 0 10 -4 10
-10 0 -5 -7 -10 -16 -10 -14 0 -16 -9 -12 -55 3 -31 10 -61 16 -67 6 -6 44
-12 84 -13 40 -1 86 -7 101 -14 31 -12 63 -18 122 -23 l40 -3 -1 82 c-2 116
-34 245 -54 213 -5 -9 -13 -9 -27 -2 -10 6 -39 13 -64 16 -120 16 -196 25
-221 25 l-26 1 19 -55z m174 15 c3 -5 2 -10 -4 -10 -5 0 -13 5 -16 10 -3 6 -2
10 4 10 5 0 13 -4 16 -10z m45 -33 c0 -4 -2 -7 -5 -7 -3 0 -14 0 -25 0 -11 0
-20 5 -20 10 0 6 11 9 25 7 14 -2 25 -6 25 -10z m97 -9 c-3 -8 -6 -5 -6 6 -1
11 2 17 5 13 3 -3 4 -12 1 -19z m-89 -45 c-1 -10 2 -30 5 -45 5 -17 3 -28 -3
-28 -5 0 -10 14 -10 30 0 19 -6 33 -16 37 -13 5 -13 7 -2 14 20 13 27 11 26
-8z m-62 -13 c8 0 14 -9 14 -20 0 -11 7 -20 15 -20 8 0 15 -4 15 -8 0 -4 -16
-6 -35 -4 -33 4 -35 6 -34 41 0 20 3 30 6 24 2 -7 11 -13 19 -13z m134 -30 c0
-20 -5 -30 -15 -30 -8 0 -15 5 -15 10 0 6 5 10 11 10 6 0 9 9 6 20 -3 11 -1
20 4 20 5 0 9 -13 9 -30z m60 -57 c0 -44 -5 -41 -14 10 -5 27 -4 37 3 32 6 -3
11 -22 11 -42z m-3 -85 c-3 -7 -5 -2 -5 12 0 14 2 19 5 13 2 -7 2 -19 0 -25z"/>
<path d="M1390 1531 c0 -24 3 -29 17 -24 10 4 12 8 6 10 -7 3 -10 10 -7 18 3
7 1 16 -5 20 -7 4 -11 -5 -11 -24z"/>
<path d="M2643 1553 c9 -2 23 -2 30 0 6 3 -1 5 -18 5 -16 0 -22 -2 -12 -5z"/>
<path d="M530 1530 c-14 -11 -33 -20 -42 -20 -9 0 -19 -4 -22 -9 -3 -4 -16 -6
-30 -4 -13 3 -36 -3 -50 -12 -34 -23 -48 -9 -17 16 64 52 -96 -20 -179 -80
-30 -22 -59 -44 -65 -49 -24 -20 -75 -40 -81 -31 -3 5 -12 9 -20 9 -11 0 -13
-6 -9 -19 3 -11 1 -22 -5 -26 -7 -4 -10 -65 -9 -182 2 -162 4 -172 17 -139 17
43 23 44 39 10 9 -19 9 -32 0 -51 -10 -21 -8 -27 8 -39 57 -39 97 -95 58 -79
-37 15 -53 17 -53 6 0 -6 -4 -11 -9 -11 -5 0 -8 7 -7 16 2 31 -20 25 -36 -10
-14 -27 -17 -69 -17 -219 l0 -185 29 -12 c16 -6 31 -18 34 -26 3 -8 13 -14 22
-14 9 0 45 -18 80 -40 65 -41 84 -48 84 -30 0 6 10 31 22 57 l22 47 8 -29 c5
-19 2 -45 -8 -74 -10 -31 -12 -47 -5 -49 16 -5 13 -22 -3 -22 -15 0 -40 -63
-51 -124 -7 -42 -15 -40 -31 7 -8 25 -7 43 5 81 13 39 13 50 3 54 -7 2 -40 25
-73 50 -70 54 -119 85 -126 79 -2 -3 -7 -85 -10 -182 -5 -138 -3 -176 6 -171
6 4 23 1 36 -8 21 -14 70 -16 351 -16 l327 0 -7 132 c-4 73 -8 134 -10 135 -1
2 -27 -2 -57 -8 -30 -6 -109 -12 -176 -14 -115 -3 -123 -2 -123 15 0 23 15 27
110 29 41 1 100 6 130 11 30 6 69 12 85 14 17 2 29 9 27 15 -1 6 -5 94 -8 194
-3 100 -7 187 -9 194 -2 6 -18 10 -37 9 -209 -19 -205 -19 -211 -3 -9 24 12
34 88 42 39 4 79 8 90 9 11 2 22 13 26 27 7 23 7 23 8 2 1 -14 7 -23 17 -23
13 0 15 18 9 158 -11 251 -8 237 -41 237 -16 0 -34 -3 -40 -7 -13 -9 -83 -10
-152 -2 -39 4 -58 2 -70 -8 -9 -8 -24 -18 -34 -21 -17 -6 -18 -12 -4 -187 14
-183 15 -189 39 -192 30 -4 30 -42 0 -46 -23 -3 -23 -6 -23 -137 0 -74 -4
-136 -9 -139 -13 -8 -21 56 -21 165 0 75 -3 99 -15 109 -12 10 -13 15 -4 21 9
5 8 26 -4 87 -9 44 -20 130 -23 191 -4 62 -11 114 -16 117 -21 13 -93 4 -136
-16 -96 -46 -93 -45 -102 -30 -6 8 -10 17 -10 20 0 11 56 38 93 45 20 4 40 11
43 16 3 5 30 9 60 9 31 0 54 4 54 11 0 5 -4 7 -10 4 -6 -3 -10 -1 -10 4 0 6 5
11 10 11 6 0 10 44 10 113 1 117 6 133 48 156 21 11 33 -1 13 -13 -6 -4 -13
-277 -7 -276 1 0 26 7 56 15 37 10 74 13 113 9 43 -5 74 -2 115 11 l57 18 2
156 2 156 -52 2 c-39 2 -58 -3 -77 -17z m97 -112 c-3 -8 -6 -5 -6 6 -1 11 2
17 5 13 3 -3 4 -12 1 -19z m-37 -38 c0 -38 -4 -50 -15 -50 -8 0 -15 3 -15 6 0
12 23 94 26 94 2 0 4 -22 4 -50z m-360 20 c0 -5 -5 -10 -11 -10 -5 0 -7 5 -4
10 3 6 8 10 11 10 2 0 4 -4 4 -10z m-43 -82 c-3 -8 -6 -5 -6 6 -1 11 2 17 5
13 3 -3 4 -12 1 -19z m-107 -59 c0 -6 -4 -7 -10 -4 -5 3 -10 11 -10 16 0 6 5
7 10 4 6 -3 10 -11 10 -16z m30 -79 c0 -5 -4 -10 -10 -10 -5 0 -10 5 -10 10 0
6 5 10 10 10 6 0 10 -4 10 -10z m-55 -20 c-3 -5 -11 -10 -16 -10 -6 0 -7 5 -4
10 3 6 11 10 16 10 6 0 7 -4 4 -10z m595 -21 c0 -13 -4 -18 -12 -13 -8 5 -10
-22 -5 -107 3 -68 2 -100 -3 -79 -4 19 -10 74 -12 122 -2 71 0 88 12 92 8 2
16 4 18 5 1 0 2 -8 2 -20z m-65 -70 c-4 -18 -3 -29 4 -29 14 0 15 -106 2 -115
-5 -3 -12 -1 -15 4 -4 5 -2 12 4 16 5 3 10 13 10 21 0 8 -4 13 -9 9 -5 -3 -11
9 -13 27 -5 51 3 109 14 102 5 -3 6 -19 3 -35z m62 4 c-3 -10 -5 -4 -5 12 0
17 2 24 5 18 2 -7 2 -21 0 -30z m-170 -15 c-3 -8 -6 -5 -6 6 -1 11 2 17 5 13
3 -3 4 -12 1 -19z m-387 -8 c-27 -24 -40 -25 -40 -6 0 16 15 24 44 25 17 1 17
-1 -4 -19z m285 -22 c4 -24 5 -61 2 -83 -4 -39 -4 -39 -5 9 -2 38 -5 47 -17
42 -8 -3 -15 -1 -15 4 0 6 5 10 11 10 7 0 8 11 4 30 -4 18 -3 30 4 30 5 0 13
-19 16 -42z m-242 -18 c3 -11 1 -17 -4 -14 -5 3 -17 -2 -26 -12 -12 -11 -18
-13 -21 -5 -2 7 6 21 19 31 27 24 26 24 32 0z m124 -32 c-3 -7 -5 -2 -5 12 0
14 2 19 5 13 2 -7 2 -19 0 -25z m-97 -21 c0 -7 -5 -18 -12 -25 -7 -7 -9 -12
-4 -12 4 0 0 -7 -9 -16 -19 -19 -37 -8 -42 25 -3 21 28 38 48 25 8 -4 9 -3 5
4 -4 7 -2 12 3 12 6 0 11 -6 11 -13z m307 -39 c-3 -8 -6 -5 -6 6 -1 11 2 17 5
13 3 -3 4 -12 1 -19z m-307 -48 c-11 -7 -12 -10 -2 -10 7 0 10 -5 6 -11 -4 -7
-9 -8 -17 0 -7 7 -6 15 3 26 7 8 15 13 19 10 3 -3 -1 -10 -9 -15z m-110 -118
c0 -5 -7 -17 -16 -28 -8 -10 -14 -14 -11 -9 2 6 7 18 10 28 7 17 17 23 17 9z
m224 -38 c8 -21 1 -31 -34 -49 -27 -14 -30 -14 -40 4 -8 16 -5 23 18 40 33 25
48 26 56 5z m386 -84 l-11 -25 6 25 c2 14 5 34 6 45 2 19 2 19 6 0 2 -12 -1
-32 -7 -45z m-46 3 c-5 -5 -12 -12 -16 -18 -4 -6 -8 -2 -8 8 0 9 7 17 17 17 9
0 12 -3 7 -7z m-289 -413 c3 -5 1 -10 -4 -10 -6 0 -11 5 -11 10 0 6 2 10 4 10
3 0 8 -4 11 -10z"/>
<path d="M2735 1530 c3 -5 8 -10 11 -10 2 0 4 5 4 10 0 6 -5 10 -11 10 -5 0
-7 -4 -4 -10z"/>
<path d="M3720 1495 c6 -15 15 -81 22 -148 9 -86 14 -113 19 -92 6 28 7 28 8
5 1 -17 7 -26 19 -26 64 -2 143 -14 161 -23 11 -7 21 -21 21 -33 0 -17 -4 -19
-27 -14 -34 8 -40 10 -78 25 -16 7 -43 10 -60 7 -16 -4 -35 -7 -42 -8 -16 -2
-22 -40 -34 -213 -5 -82 -14 -163 -19 -180 -16 -53 -59 -279 -58 -305 1 -35
-13 -153 -19 -163 -3 -5 -19 -7 -35 -5 -17 3 -49 1 -72 -3 -22 -4 -59 -4 -81
1 -22 5 -66 12 -97 15 -68 7 -64 15 -72 -141 -3 -55 -9 -121 -12 -146 l-7 -47
315 -1 314 0 13 57 c7 32 21 74 31 93 l19 35 1 -29 c0 -21 4 -27 16 -22 9 3
24 6 35 6 18 0 19 8 18 133 -1 82 -4 121 -9 102 -7 -27 -8 -26 -9 15 0 32 2
41 9 30 7 -11 10 -5 10 23 0 38 -5 42 -55 38 -16 -1 -13 5 18 34 l37 36 -1 97
c-2 79 -7 108 -27 157 -25 58 -61 120 -49 83 3 -9 0 -18 -6 -21 -7 -3 -12 5
-12 19 0 13 3 24 8 24 4 0 7 5 7 11 0 6 -15 2 -35 -10 -19 -11 -36 -17 -39
-13 -6 10 50 83 58 75 9 -10 7 6 -4 27 -12 22 -3 50 14 50 7 0 18 -12 25 -27
10 -22 14 -24 22 -12 5 7 9 10 9 6 0 -5 7 -2 15 7 18 17 22 196 5 196 -5 0
-10 7 -10 15 0 8 5 15 10 15 18 0 11 59 -10 80 -11 11 -20 24 -20 28 0 19
-107 88 -118 77 -8 -8 11 -27 35 -36 20 -7 24 -15 21 -41 -2 -17 -9 -34 -17
-36 -10 -3 -12 1 -8 17 3 14 0 24 -8 27 -8 3 -11 12 -8 20 3 8 1 14 -4 14 -6
0 -15 11 -21 25 -12 25 -66 60 -81 50 -5 -2 -11 2 -14 9 -3 8 -15 20 -26 26
-19 10 -20 9 -11 -15z m70 -115 c0 -20 -2 -22 -10 -10 -5 8 -10 26 -10 40 0
20 2 22 10 10 5 -8 10 -26 10 -40z m168 -40 c-1 -17 -5 -29 -10 -28 -5 2 -9 7
-9 11 1 4 1 16 1 27 0 11 4 20 9 20 5 0 9 -14 9 -30z m12 -110 c0 -5 -7 -7
-15 -4 -8 4 -15 8 -15 10 0 2 7 4 15 4 8 0 15 -4 15 -10z m-180 -114 c0 -3 -4
-8 -10 -11 -5 -3 -10 -1 -10 4 0 6 5 11 10 11 6 0 10 -2 10 -4z m133 -8 c9 0
17 -5 17 -13 0 -19 -11 -24 -43 -18 -19 4 -27 11 -27 25 0 15 4 18 18 13 9 -4
25 -7 35 -7z m-151 -50 c-6 -7 -12 -31 -15 -53 -3 -36 -4 -35 -5 12 -1 33 2
53 11 56 17 6 22 0 9 -15z m201 -7 c-2 -6 2 -11 9 -11 6 0 8 -3 5 -6 -8 -8
-37 14 -37 28 0 5 6 8 13 5 6 -2 11 -10 10 -16z m-77 -36 c0 -30 -3 -34 -23
-33 -19 2 -23 8 -23 34 0 36 5 43 29 37 12 -3 17 -14 17 -38z m-23 -60 c-6
-17 -25 -15 -31 3 -2 7 5 12 17 12 14 0 19 -5 14 -15z m96 -150 c0 -5 -4 -3
-9 5 -9 13 -10 13 -10 0 0 -13 -1 -13 -10 0 -5 8 -10 20 -10 25 0 6 5 3 10 -5
8 -12 10 -12 11 5 l0 20 9 -20 c5 -11 9 -24 9 -30z m-144 -16 c6 -6 3 -15 -7
-26 -15 -15 -19 -15 -52 1 -38 18 -43 25 -25 43 12 12 63 0 84 -18z m90 1 c-3
-5 -10 -10 -16 -10 -5 0 -9 5 -9 10 0 6 7 10 16 10 8 0 12 -4 9 -10z m83 -33
c18 -50 14 -57 -8 -13 -23 45 -23 46 -12 46 4 0 13 -15 20 -33z m-9 -52 c0 -5
-8 6 -19 25 -11 19 -19 40 -19 45 0 6 8 -6 19 -25 11 -19 19 -39 19 -45z
m-109 21 c0 -3 -4 -8 -10 -11 -5 -3 -10 -1 -10 4 0 6 5 11 10 11 6 0 10 -2 10
-4z m117 -58 c-3 -8 -6 -5 -6 6 -1 11 2 17 5 13 3 -3 4 -12 1 -19z m-237 -13
c0 -8 -7 -15 -15 -15 -9 0 -12 6 -9 15 4 8 10 15 15 15 5 0 9 -7 9 -15z m-28
-67 c-7 -7 -12 -8 -12 -2 0 14 12 26 19 19 2 -3 -1 -11 -7 -17z m-9 -172 c37
-71 30 -315 -10 -347 -13 -12 -14 -6 -10 46 3 33 9 76 12 96 4 23 3 39 -4 43
-6 4 -11 18 -11 32 0 14 -4 22 -10 19 -5 -3 -10 -2 -10 4 0 5 5 11 12 13 9 3
9 12 0 38 -16 44 -16 103 0 98 6 -2 21 -21 31 -42z m181 11 c-10 -13 -41 -35
-69 -49 -46 -23 -50 -28 -48 -58 2 -37 -11 -30 -21 11 -5 22 1 32 41 65 41 35
102 67 111 58 2 -1 -4 -13 -14 -27z m-124 -15 c0 -15 -2 -15 -10 -2 -13 20
-13 33 0 25 6 -3 10 -14 10 -23z m-130 -142 c0 -4 -7 -10 -15 -14 -10 -4 -15
1 -15 14 0 13 5 18 15 14 8 -4 15 -10 15 -14z m-335 -20 c3 -5 1 -10 -4 -10
-6 0 -11 5 -11 10 0 6 2 10 4 10 3 0 8 -4 11 -10z m109 -20 c11 -24 12 -30 1
-30 -13 0 -25 21 -25 46 0 22 7 17 24 -16z m-104 -60 c0 -5 -4 -10 -10 -10 -5
0 -10 5 -10 10 0 6 5 10 10 10 6 0 10 -4 10 -10z m267 -27 c-3 -10 -5 -4 -5
12 0 17 2 24 5 18 2 -7 2 -21 0 -30z m-142 17 c3 -5 -3 -10 -14 -10 -11 0 -23
5 -26 10 -3 6 3 10 14 10 11 0 23 -4 26 -10z m42 -22 c-3 -8 -6 -5 -6 6 -1 11
2 17 5 13 3 -3 4 -12 1 -19z m-51 -43 c-1 -33 -16 -33 -16 0 0 14 4 25 9 25 5
0 8 -11 7 -25z m151 -7 c-3 -8 -6 -5 -6 6 -1 11 2 17 5 13 3 -3 4 -12 1 -19z
m-106 -19 c-5 -13 -10 -19 -10 -12 -1 15 10 45 15 40 3 -2 0 -15 -5 -28z m-81
11 c0 -5 -5 -10 -11 -10 -5 0 -7 5 -4 10 3 6 8 10 11 10 2 0 4 -4 4 -10z m480
-35 c0 -9 -9 -19 -20 -23 -25 -9 -110 -3 -110 9 0 10 21 13 57 10 12 -1 24 3
28 9 10 16 45 12 45 -5z"/>
<path d="M1615 1440 c3 -5 11 -10 16 -10 6 0 7 5 4 10 -3 6 -11 10 -16 10 -6
0 -7 -4 -4 -10z"/>
<path d="M2537 1289 c-4 -19 -9 -59 -13 -89 -3 -30 -12 -90 -20 -134 -19 -103
-18 -146 1 -146 10 0 15 10 15 33 0 17 5 39 11 47 7 11 9 3 7 -32 -3 -42 -1
-48 17 -49 11 0 54 -3 95 -5 135 -9 190 -9 190 -1 0 4 -6 7 -14 7 -10 0 -12 7
-8 23 6 21 6 21 10 2 l5 -20 8 20 c6 16 8 13 9 -15 1 -31 2 -32 10 -13 12 31
23 204 11 178 -5 -11 -10 -30 -10 -42 -1 -35 -31 -17 -31 18 0 16 4 29 10 29
5 0 7 13 4 30 -8 37 17 42 34 8 10 -21 11 -19 9 17 -2 35 -5 40 -25 38 -19 -2
-21 -1 -10 11 9 10 18 11 31 5 15 -8 17 -5 17 26 0 19 1 38 3 42 5 15 -71 27
-259 39 l-101 7 -6 -34z m303 -13 c0 -3 -4 -8 -10 -11 -5 -3 -10 -1 -10 4 0 6
5 11 10 11 6 0 10 -2 10 -4z m-150 -35 c0 -4 18 -6 41 -4 36 4 40 3 37 -13 -3
-15 -12 -19 -51 -19 -42 0 -47 2 -47 23 0 12 5 22 10 22 6 0 10 -4 10 -9z
m140 -30 c0 -10 -7 -21 -15 -25 -11 -4 -15 1 -15 19 0 16 6 25 15 25 8 0 15
-9 15 -19z m-275 -111 l-14 -55 5 50 c2 28 8 64 12 80 6 28 7 29 9 5 2 -14 -4
-50 -12 -80z m200 48 c-4 -15 -7 -40 -7 -57 -1 -30 -2 -30 -50 -28 l-50 2 6
35 c3 19 6 44 6 56 0 18 6 21 50 20 49 -1 50 -2 45 -28z m67 -33 c-2 -32 -9
-55 -20 -63 -22 -17 -26 -4 -17 64 5 44 10 54 23 52 13 -2 16 -13 14 -53z
m-172 -159 c0 -3 -4 -8 -10 -11 -5 -3 -10 -1 -10 4 0 6 5 11 10 11 6 0 10 -2
10 -4z m142 -28 c-9 -9 -15 -9 -24 0 -9 9 -7 12 12 12 19 0 21 -3 12 -12z"/>
<path d="M2715 1148 c-9 -31 -11 -67 -4 -62 5 3 9 14 9 24 0 10 5 22 10 25 6
3 10 10 10 16 0 14 -20 11 -25 -3z"/>
<path d="M2676 1135 c-3 -9 -6 -26 -5 -38 1 -16 4 -12 10 12 10 34 6 55 -5 26z"/>
<path d="M1534 1278 c21 -133 19 -126 26 -93 4 17 3 34 -2 40 -4 5 -8 14 -8
20 0 5 5 3 10 -5 8 -11 10 -5 8 25 -2 29 -8 41 -21 43 -16 3 -18 -1 -13 -30z"/>
<path d="M1380 1293 c-96 -8 -204 -25 -222 -36 -17 -11 -19 -19 -13 -76 5 -45
4 -61 -4 -57 -7 5 -11 -5 -11 -28 0 -20 5 -36 10 -36 6 0 10 10 10 22 0 21 0
21 15 2 16 -21 20 -38 7 -30 -5 3 -7 -21 -5 -52 3 -58 0 -60 -12 -8 -13 59
-16 15 -4 -58 l13 -76 45 4 c25 2 93 11 151 20 58 9 120 18 138 19 17 2 34 6
37 9 3 3 -1 39 -9 79 -8 41 -20 112 -26 159 -6 47 -13 99 -16 117 -5 35 0 34
-104 26z m81 -95 c-9 -9 -12 -9 -7 -1 3 6 2 14 -4 18 -5 3 -10 11 -10 18 0 6
7 4 17 -6 14 -14 15 -19 4 -29z m-41 12 c0 -5 -2 -10 -4 -10 -3 0 -8 5 -11 10
-3 6 -1 10 4 10 6 0 11 -4 11 -10z m-60 -16 c0 -8 -5 -12 -10 -9 -6 4 -8 11
-5 16 9 14 15 11 15 -7z m68 -71 c0 -21 1 -47 4 -58 3 -11 3 -14 1 -7 -3 6 -9
12 -15 12 -6 0 -8 13 -5 34 3 19 0 39 -6 45 -8 8 -7 11 6 11 13 0 16 -9 15
-37z m-61 -15 c-3 -8 -6 -5 -6 6 -1 11 2 17 5 13 3 -3 4 -12 1 -19z m123 -8
c0 -11 -4 -20 -10 -20 -5 0 -10 9 -10 20 0 11 5 20 10 20 6 0 10 -9 10 -20z
m30 -160 c0 -11 -4 -20 -9 -20 -11 0 -22 26 -14 34 12 12 23 5 23 -14z m-343
-52 c-3 -8 -6 -5 -6 6 -1 11 2 17 5 13 3 -3 4 -12 1 -19z"/>
<path d="M2950 1246 c0 -12 -3 -46 -6 -76 -6 -47 -4 -53 7 -42 8 7 14 25 14
39 0 14 6 28 13 31 10 3 12 -10 7 -64 -11 -133 -24 -153 -44 -69 l-9 40 -2
-35 c-1 -19 -5 -68 -9 -107 -7 -72 4 -102 16 -43 3 17 9 30 14 30 11 0 7 -44
-5 -52 -21 -14 44 -26 161 -30 l121 -3 8 50 8 50 6 -65 c3 -36 8 -60 12 -54 7
11 22 151 33 304 l5 76 -54 2 c-30 1 -83 11 -118 22 -37 11 -88 19 -121 18
-50 -1 -57 -4 -57 -22z m42 -28 c-9 -9 -12 -7 -12 12 0 19 3 21 12 12 9 -9 9
-15 0 -24z m130 -6 c-2 -14 22 -43 35 -42 4 0 8 -6 8 -12 0 -9 -14 -12 -45 -9
-25 1 -47 4 -48 6 -9 9 11 45 26 46 15 1 15 2 0 6 -26 7 -22 25 5 21 12 -2 21
-9 19 -16z m108 -23 c0 -11 -27 -12 -34 0 -3 4 -3 11 0 14 8 8 34 -3 34 -14z
m44 -26 c-3 -21 -8 -69 -11 -108 -5 -74 -23 -115 -23 -55 0 100 14 200 27 200
10 0 12 -10 7 -37z m-52 -39 c-9 -136 -33 -176 -28 -46 5 98 4 94 19 89 7 -2
11 -19 9 -43z m-63 -8 c6 -7 9 -28 7 -47 -2 -19 -4 -42 -5 -52 0 -10 -5 -16
-11 -12 -5 3 -25 6 -45 7 l-35 1 0 59 0 58 39 0 c21 0 44 -6 50 -14z m-85
-228 c-9 -14 -23 2 -17 18 4 12 8 13 14 3 4 -7 5 -17 3 -21z m76 2 c0 -5 -2
-10 -4 -10 -3 0 -8 5 -11 10 -3 6 -1 10 4 10 6 0 11 -4 11 -10z"/>
<path d="M1117 1200 c3 -30 7 -57 9 -59 9 -10 3 85 -6 99 -6 10 -7 -3 -3 -40z"/>
<path d="M3336 1098 c-3 -79 -9 -169 -12 -200 -5 -42 -3 -58 6 -58 6 0 14 9
17 20 3 11 10 20 15 20 6 0 8 -7 5 -15 -4 -8 -2 -17 2 -20 14 -8 204 -16 244
-9 31 5 37 10 38 32 1 27 1 27 8 -3 6 -26 8 -22 14 30 12 117 17 261 8 240 -8
-16 -10 -12 -10 22 -1 36 -5 44 -24 48 -13 4 -27 5 -33 4 -5 -2 -33 5 -63 14
-31 10 -88 17 -131 17 l-77 0 -7 -142z m44 55 c0 -20 -3 -24 -11 -16 -7 7 -9
19 -6 27 10 24 17 19 17 -11z m97 -25 c-3 -7 -5 -2 -5 12 0 14 2 19 5 13 2 -7
2 -19 0 -25z m83 16 c0 -8 -4 -12 -10 -9 -5 3 -10 10 -10 16 0 5 5 9 10 9 6 0
10 -7 10 -16z m55 -14 c3 -5 1 -10 -4 -10 -6 0 -11 5 -11 10 0 6 2 10 4 10 3
0 8 -4 11 -10z m-135 -49 c0 -11 6 -21 13 -24 9 -3 9 -9 0 -25 -11 -18 -10
-22 7 -27 30 -10 24 -25 -10 -25 l-30 0 0 60 c0 33 4 60 10 60 6 0 10 -9 10
-19z m167 -33 c-3 -7 -5 -2 -5 12 0 14 2 19 5 13 2 -7 2 -19 0 -25z m20 -20
c-2 -13 -4 -5 -4 17 -1 22 1 32 4 23 2 -10 2 -28 0 -40z m-58 -20 c1 -16 -3
-28 -8 -28 -12 0 -20 47 -13 73 5 20 6 20 13 1 4 -10 8 -31 8 -46z"/>
<path d="M1033 1215 c-3 -9 -3 -19 1 -22 3 -4 6 1 6 11 0 9 5 14 10 11 6 -3
10 -1 10 4 0 17 -20 13 -27 -4z"/>
<path d="M903 1198 c-23 -11 -64 -18 -114 -20 l-79 -1 0 -69 c0 -62 2 -68 21
-68 19 0 20 4 15 53 -5 35 -4 47 3 37 13 -20 29 -200 19 -206 -4 -3 -8 9 -8
25 0 38 -19 41 -22 4 -1 -16 -4 -3 -8 27 l-7 55 -1 -51 c-3 -73 9 -174 19
-168 5 3 9 1 9 -5 0 -5 -6 -12 -12 -14 -7 -3 -2 -6 11 -6 20 -1 23 3 19 24 -3
14 -2 25 3 25 4 0 9 -10 11 -22 4 -28 51 -37 76 -15 16 14 107 28 175 27 19 0
27 5 27 17 0 14 2 15 9 4 19 -30 35 -5 32 50 -3 80 -8 91 -33 78 -11 -6 -22
-9 -24 -6 -3 3 -9 49 -15 103 -14 144 -13 142 -55 140 -19 0 -51 -9 -71 -18z
m27 -73 c0 -8 -4 -15 -10 -15 -5 0 -7 7 -4 15 4 8 8 15 10 15 2 0 4 -7 4 -15z
m70 -2 c0 -11 -3 -14 -8 -7 -4 6 -14 14 -22 17 -10 4 -8 6 8 6 15 1 22 -5 22
-16z m-120 -7 c0 -3 -5 -17 -11 -33 -9 -25 -11 -26 -21 -10 -12 23 -4 47 17
47 8 0 15 -2 15 -4z m62 -71 c-2 -15 1 -37 8 -51 8 -13 11 -26 9 -28 -2 -2
-25 -6 -51 -9 -39 -5 -48 -4 -48 8 0 8 3 14 8 13 4 -2 18 5 30 14 18 12 22 22
17 38 -7 21 11 54 25 45 4 -2 5 -16 2 -30z m58 15 c0 -11 -4 -20 -10 -20 -5 0
-10 9 -10 20 0 11 5 20 10 20 6 0 10 -9 10 -20z m-128 -40 c-5 -36 -7 -35 -16
3 -4 19 -3 27 7 27 9 0 12 -9 9 -30z m147 -32 c1 -5 -6 -8 -15 -8 -11 0 -14 5
-10 16 3 9 6 21 7 27 0 12 17 -20 18 -35z m-242 -110 c-3 -8 -6 -5 -6 6 -1 11
2 17 5 13 3 -3 4 -12 1 -19z m293 2 c0 -5 -2 -10 -4 -10 -3 0 -8 5 -11 10 -3
6 -1 10 4 10 6 0 11 -4 11 -10z"/>
<path d="M3680 1179 c0 -11 4 -18 10 -14 5 3 7 12 3 20 -7 21 -13 19 -13 -6z"/>
<path d="M1049 1167 c-7 -16 -9 -39 -4 -64 12 -54 12 -55 13 -80 1 -13 7 -23
13 -23 8 0 9 28 4 92 -3 51 -8 94 -10 97 -2 2 -9 -8 -16 -22z m8 -39 c-3 -7
-5 -2 -5 12 0 14 2 19 5 13 2 -7 2 -19 0 -25z"/>
<path d="M1561 1113 c0 -25 1 -26 9 -8 12 27 12 35 0 35 -5 0 -10 -12 -9 -27z"/>
<path d="M741 1014 c0 -11 3 -14 6 -6 3 7 2 16 -1 19 -3 4 -6 -2 -5 -13z"/>
<path d="M3995 960 c-8 -13 3 -68 16 -76 5 -3 8 14 7 40 -1 44 -10 57 -23 36z"/>
<path d="M1795 860 c3 -5 8 -10 11 -10 2 0 4 5 4 10 0 6 -5 10 -11 10 -5 0 -7
-4 -4 -10z"/>
<path d="M2480 850 c-1 -14 -3 -36 -4 -50 -3 -24 -10 -115 -21 -277 -4 -48 -2
-73 5 -73 6 0 10 6 9 13 -3 25 4 81 8 64 2 -9 9 -15 14 -12 5 4 9 -10 9 -29
l0 -36 88 -2 c48 0 119 -2 159 -4 l72 -2 5 51 c21 210 27 299 22 304 -12 12
-29 -56 -38 -157 -10 -106 -13 -119 -24 -107 -6 6 9 214 21 288 4 25 1 27 -38
33 -23 3 -93 8 -154 12 l-113 7 -1 -29 -1 -29 -8 30 c-7 28 -8 29 -10 5z m41
-87 c-1 -43 -4 -89 -5 -103 -2 -14 -4 -47 -5 -74 0 -27 -4 -46 -8 -42 -4 4 -6
26 -5 49 2 31 0 38 -7 27 -8 -11 -11 -1 -11 38 0 29 4 51 9 48 10 -6 22 30 13
39 -9 9 -9 45 0 45 4 0 8 14 8 32 0 17 3 28 7 25 3 -4 5 -42 4 -84z m246 -15
c-3 -7 -5 -2 -5 12 0 14 2 19 5 13 2 -7 2 -19 0 -25z m-137 -37 c0 -6 -4 -13
-10 -16 -5 -3 -10 1 -10 9 0 9 5 16 10 16 6 0 10 -4 10 -9z m50 -2 c0 -6 -7
-9 -15 -5 -19 7 -21 -39 -2 -48 10 -5 10 -7 0 -12 -7 -3 -13 -12 -13 -20 0 -8
-4 -14 -9 -14 -6 0 -9 9 -8 19 0 11 4 18 8 15 4 -2 5 14 2 36 -5 36 -3 40 16
40 11 0 21 -5 21 -11z m147 -51 c-2 -13 -4 -3 -4 22 0 25 2 35 4 23 2 -13 2
-33 0 -45z m-61 30 c-3 -13 -6 -40 -6 -61 0 -23 -4 -36 -10 -32 -11 7 -14 98
-3 108 14 15 25 6 19 -15z m-70 -85 c-3 -3 -13 -3 -22 1 -15 6 -16 8 0 24 9
10 17 29 18 43 1 13 3 4 5 -20 3 -23 2 -45 -1 -48z m-80 40 c-10 -10 -19 5
-10 18 6 11 8 11 12 0 2 -7 1 -15 -2 -18z m174 -163 c0 -11 -4 -20 -9 -20 -5
0 -7 9 -4 20 3 11 7 20 9 20 2 0 4 -9 4 -20z"/>
<path d="M1360 838 c-58 -5 -125 -15 -149 -21 l-43 -12 6 -160 c9 -212 14
-255 33 -255 12 0 13 22 10 143 -3 91 -2 122 3 87 4 -30 8 -92 9 -137 1 -97
-11 -92 152 -67 89 14 140 21 171 23 4 1 6 20 3 44 -5 45 -14 253 -15 325 l0
42 -37 -2 c-21 0 -85 -5 -143 -10z m157 -14 c-3 -3 -12 -4 -19 -1 -8 3 -5 6 6
6 11 1 17 -2 13 -5z m-300 -121 c-3 -10 -5 -4 -5 12 0 17 2 24 5 18 2 -7 2
-21 0 -30z m303 -228 c0 -8 -4 -15 -10 -15 -5 0 -10 7 -10 15 0 8 5 15 10 15
6 0 10 -7 10 -15z"/>
<path d="M2833 843 c-10 -3 -10 -7 0 -18 14 -15 27 -10 27 11 0 14 -6 16 -27
7z"/>
<path d="M2910 836 c-6 -13 -34 -398 -30 -401 5 -3 79 -11 200 -20 36 -2 83
-7 106 -11 29 -4 44 -2 52 9 30 35 35 394 6 383 -7 -3 -14 0 -16 5 -2 6 -64
14 -138 19 -74 6 -145 12 -157 14 -13 2 -23 3 -23 2z m34 -58 c-5 -13 -7 -67
-6 -120 2 -56 -1 -98 -6 -98 -15 0 -33 26 -28 41 5 13 15 127 16 177 0 13 6
22 16 22 12 0 13 -5 8 -22z m120 3 c3 -5 0 -11 -8 -14 -8 -3 -17 1 -20 9 -6
15 19 20 28 5z m68 -116 c-5 -79 -11 -110 -19 -109 -7 1 -31 2 -53 3 -37 1
-40 3 -40 29 0 15 3 43 6 63 l6 36 44 -7 c33 -5 44 -4 44 7 0 9 -14 13 -45 13
-42 0 -45 2 -45 26 0 25 2 26 40 21 33 -4 42 -2 51 15 6 11 12 18 14 16 2 -2
1 -53 -3 -113z m97 31 c-9 -8 -10 -5 -5 14 3 14 7 36 8 50 1 14 3 8 5 -14 3
-22 -1 -43 -8 -50z m-27 17 c-6 -18 -42 -16 -42 2 0 9 7 18 15 21 8 4 15 14
16 23 1 9 4 5 8 -9 4 -14 6 -31 3 -37z m-6 -76 c-3 -16 -6 -42 -6 -58 0 -22
-5 -29 -20 -29 -19 0 -20 4 -15 53 9 71 12 78 31 70 12 -4 14 -14 10 -36z m46
11 c-9 -3 -11 -7 -4 -7 15 -1 16 -61 1 -61 -6 0 -9 -7 -6 -15 4 -8 2 -17 -3
-20 -6 -4 -10 -20 -10 -37 0 -17 -3 -29 -6 -25 -3 3 -3 48 1 101 7 89 8 94 26
83 18 -11 18 -12 1 -19z m-314 -153 c0 -30 -5 -52 -9 -49 -16 10 -10 104 7
104 1 0 2 -25 2 -55z"/>
<path d="M3314 774 c-4 -15 -4 -63 -1 -108 4 -46 1 -123 -7 -178 -7 -54 -9
-98 -4 -98 4 0 8 5 8 10 0 6 5 10 11 10 5 0 7 -6 3 -12 -5 -9 -2 -9 9 1 15 12
17 11 17 -3 0 -22 29 -27 161 -29 l114 -2 7 50 c4 28 6 89 5 137 -1 47 1 84 6
81 9 -5 9 48 1 109 l-6 45 -107 1 c-58 0 -117 2 -130 4 -30 4 -37 -20 -45
-156 -3 -49 -8 -92 -11 -94 -9 -9 -5 161 4 201 8 32 6 39 -10 47 -15 9 -20 6
-25 -16z m35 -341 c0 -11 -3 -13 -6 -5 -2 6 -9 10 -14 6 -5 -3 -9 0 -9 5 0 6
7 11 15 11 8 0 15 -8 14 -17z"/>
<path d="M1069 785 c-5 -4 -19 -6 -174 -24 -44 -5 -93 -14 -110 -20 -16 -7
-32 -12 -35 -12 -3 0 -5 -23 -4 -52 5 -345 6 -347 20 -347 17 0 31 29 18 39
-5 3 -7 24 -4 46 l6 40 8 -58 c5 -31 12 -59 15 -62 4 -2 45 3 92 11 46 8 98
17 114 18 17 2 52 7 79 11 l49 8 -6 56 c-3 31 -9 104 -13 164 -4 67 -11 107
-18 107 -8 0 -8 2 0 8 18 11 5 72 -15 72 -10 0 -20 -2 -22 -5z m-166 -72 c-7
-2 -19 -2 -25 0 -7 3 -2 5 12 5 14 0 19 -2 13 -5z m147 -13 c0 -5 -6 -10 -12
-10 -9 0 -8 -4 2 -10 13 -8 12 -10 -2 -10 -11 0 -18 8 -18 20 0 11 7 20 15 20
8 0 15 -4 15 -10z m-70 -24 c0 -22 -5 -24 -50 -28 -35 -2 -50 1 -50 10 0 6 -1
15 -2 20 -2 4 17 10 42 13 25 3 48 7 53 7 4 1 7 -9 7 -22z m9 -101 c1 -53 -2
-65 -15 -65 -9 0 -14 6 -11 13 3 8 -1 14 -8 14 -7 0 -12 -7 -11 -16 1 -9 -9
-16 -25 -17 -23 -2 -28 2 -33 28 -3 17 -6 43 -6 59 0 26 3 29 33 29 17 0 39 5
47 10 25 16 28 12 29 -55z m61 54 c0 -5 -4 -8 -9 -5 -5 4 -12 0 -14 -6 -3 -8
-6 -6 -6 5 -1 9 6 17 14 17 8 0 15 -5 15 -11z m-3 -56 c-3 -10 -5 -4 -5 12 0
17 2 24 5 18 2 -7 2 -21 0 -30z m-261 -91 c-13 -12 -15 6 -8 63 l7 60 3 -59
c2 -32 1 -61 -2 -64z m331 -54 c-3 -8 -6 -5 -6 6 -1 11 2 17 5 13 3 -3 4 -12
1 -19z m-164 -25 c-7 -2 -19 -2 -25 0 -7 3 -2 5 12 5 14 0 19 -2 13 -5z"/>
<path d="M905 550 c4 -6 11 -8 16 -5 14 9 11 15 -7 15 -8 0 -12 -5 -9 -10z"/>
<path d="M3652 760 c0 -14 2 -19 5 -12 2 6 2 18 0 25 -3 6 -5 1 -5 -13z"/>
<path d="M1920 744 c0 -7 10 -9 25 -6 14 2 25 7 25 11 0 3 -11 6 -25 6 -14 0
-25 -5 -25 -11z"/>
<path d="M1920 684 c0 -8 5 -12 10 -9 6 3 10 10 10 16 0 5 -4 9 -10 9 -5 0
-10 -7 -10 -16z"/>
<path d="M1920 636 c0 -8 7 -16 15 -20 8 -3 14 -13 14 -23 -1 -17 -2 -17 -6 0
-9 36 -28 9 -31 -45 -3 -53 -2 -56 18 -51 11 3 20 1 20 -5 0 -6 -10 -13 -22
-15 -20 -4 -19 -4 5 -6 l27 -1 0 90 c0 83 -1 90 -20 90 -11 0 -20 -6 -20 -14z
m27 -98 c-3 -8 -6 -5 -6 6 -1 11 2 17 5 13 3 -3 4 -12 1 -19z"/>
<path d="M2010 640 c0 -5 5 -10 10 -10 6 0 10 5 10 10 0 6 -4 10 -10 10 -5 0
-10 -4 -10 -10z"/>
<path d="M1900 412 c0 -6 6 -14 12 -18 20 -13 48 -12 48 1 0 6 -6 12 -12 12
-7 0 -21 4 -30 8 -11 4 -18 3 -18 -3z"/>
<path d="M2010 348 c0 -35 -2 -88 -6 -118 -6 -46 -5 -53 7 -43 18 15 27 223 9
223 -7 0 -11 -22 -10 -62z"/>
<path d="M2527 404 c-1 -2 -19 -5 -40 -7 -21 -2 -37 -7 -37 -10 0 -4 2 -6 3
-4 2 1 11 -4 20 -12 18 -14 24 -36 7 -26 -5 3 -10 1 -10 -6 0 -9 -3 -9 -14 0
-18 15 -25 -3 -16 -44 3 -16 1 -38 -5 -49 -7 -14 -7 -20 3 -23 16 -6 16 -23
-1 -23 -9 0 -13 -12 -13 -32 0 -18 -4 -63 -8 -100 l-7 -68 160 0 c118 0 161 3
164 13 4 10 6 10 6 0 1 -7 10 -13 21 -13 15 0 20 7 20 28 1 99 14 259 21 267
4 6 8 20 8 30 -1 11 2 30 6 43 7 20 4 22 -21 21 -16 0 -65 2 -109 6 -131 11
-155 12 -158 9z m143 -126 c0 -16 -3 -19 -11 -11 -6 6 -8 16 -5 22 11 17 16
13 16 -11z m87 -30 c-3 -8 -6 -5 -6 6 -1 11 2 17 5 13 3 -3 4 -12 1 -19z
m-139 -33 c3 -14 -31 -12 -35 1 -2 6 4 10 14 9 10 0 19 -5 21 -10z m-33 -33
c-8 -8 -25 10 -25 26 0 13 2 13 14 -4 8 -10 13 -21 11 -22z m120 8 c-5 -22 -3
-30 7 -30 9 0 10 -3 2 -8 -7 -4 -14 -16 -17 -27 -3 -12 -5 -7 -6 15 -1 36 8
80 16 80 3 0 2 -13 -2 -30z m50 -42 c-8 -97 -15 -99 -15 -5 0 45 4 77 10 77 6
0 8 -27 5 -72z m-102 -5 c-6 -37 -23 -46 -19 -10 2 23 15 51 21 45 1 -2 0 -18
-2 -35z m-196 -35 c-3 -8 -6 -5 -6 6 -1 11 2 17 5 13 3 -3 4 -12 1 -19z m153
7 c-7 -9 -15 -13 -17 -11 -7 7 7 26 19 26 6 0 6 -6 -2 -15z m132 -77 c-7 -7
-12 -8 -12 -2 0 14 12 26 19 19 2 -3 -1 -11 -7 -17z"/>
<path d="M1405 373 c-181 -22 -165 -13 -166 -86 l-2 -62 -6 50 c-7 56 -18 78
-33 69 -10 -6 -3 -287 8 -326 5 -16 23 -18 191 -18 l186 0 -7 108 c-16 265
-18 282 -35 281 -9 -1 -70 -8 -136 -16z m-158 -280 c-3 -10 -5 -2 -5 17 0 19
2 27 5 18 2 -10 2 -26 0 -35z"/>
<path d="M2864 355 c-3 -14 -4 -37 -2 -50 3 -14 2 -25 -2 -25 -4 0 -8 -10 -7
-22 0 -13 -2 -36 -6 -53 -3 -16 -8 -69 -12 -117 l-7 -88 190 0 190 0 6 27 c3
16 6 70 8 122 2 69 0 95 -9 98 -8 3 -13 -4 -13 -16 0 -12 -5 -21 -11 -21 -6 0
-9 12 -7 27 2 22 8 28 28 28 22 0 25 5 28 40 3 36 0 40 -20 41 -13 0 -72 6
-133 13 -217 25 -214 25 -221 -4z m56 -15 c0 -11 -4 -20 -9 -20 -5 0 -7 9 -4
20 3 11 7 20 9 20 2 0 4 -9 4 -20z m120 -24 c0 -9 -30 -14 -35 -6 -4 6 3 10
14 10 12 0 21 -2 21 -4z m-147 -148 c-4 -63 -10 -105 -15 -102 -5 4 -8 29 -7
58 2 28 0 57 -4 64 -5 7 -4 12 2 12 6 0 11 9 11 21 0 13 -4 18 -12 13 -6 -4
-3 4 8 18 10 14 20 25 21 25 0 -1 -1 -50 -4 -109z m133 90 c4 -6 2 -14 -4 -16
-7 -2 -12 -10 -12 -18 0 -8 -4 -14 -10 -14 -5 0 -10 14 -10 30 0 31 22 42 36
18z m127 -28 c-6 -23 -33 -15 -33 10 0 20 22 32 31 17 4 -5 4 -17 2 -27z m-53
11 c0 -28 -14 -33 -33 -11 -15 17 -14 19 1 23 30 8 32 7 32 -12z m-44 -51 c32
0 34 -2 33 -32 0 -18 -4 -42 -9 -53 -8 -19 -9 -19 -9 3 -1 16 -7 22 -23 22
-21 0 -21 -1 -3 -20 23 -25 12 -39 -34 -45 l-32 -4 2 57 c3 71 8 85 26 78 8
-3 30 -6 49 -6z m93 -37 c0 -25 -1 -25 -8 -8 -8 19 -9 18 -13 -5 -5 -21 -5
-20 -7 8 -1 22 3 32 14 32 10 0 15 -9 14 -27z m-69 -83 c0 -5 -2 -10 -4 -10
-3 0 -8 5 -11 10 -3 6 -1 10 4 10 6 0 11 -4 11 -10z m-204 -57 c-10 -10 -19 5
-10 18 6 11 8 11 12 0 2 -7 1 -15 -2 -18z"/>
<path d="M1905 360 c-9 -14 3 -27 30 -32 12 -2 21 4 23 16 3 12 0 16 -7 11 -7
-4 -18 -2 -26 5 -10 8 -15 8 -20 0z"/>
<path d="M1109 326 c-2 -2 -26 -6 -54 -9 -126 -14 -144 -19 -138 -36 4 -11 1
-11 -9 3 -15 19 -19 19 -74 6 -33 -8 -63 -13 -68 -11 -9 2 -2 -172 10 -242 l7
-37 189 0 190 0 -8 147 c-3 82 -10 157 -15 168 -5 13 -8 15 -9 5 0 -11 -2 -12
-8 -2 -5 7 -10 11 -13 8z m7 -66 c1 -22 -2 -43 -7 -46 -5 -3 -9 18 -9 47 0 60
13 59 16 -1z m-55 -29 c-7 -5 -10 -14 -7 -20 4 -6 2 -11 -3 -11 -6 0 -11 9
-11 20 0 12 7 20 18 20 13 0 14 -2 3 -9z m-51 -22 c0 -18 -2 -19 -15 -9 -15
12 -12 30 6 30 5 0 9 -10 9 -21z m-44 -3 c8 -8 14 -18 14 -22 0 -5 -5 -3 -12
4 -14 14 -52 16 -43 3 3 -5 1 -12 -5 -16 -5 -3 -10 3 -10 14 0 11 8 22 18 24
9 3 18 5 20 6 2 0 10 -5 18 -13z m114 -62 c0 -14 -4 -23 -9 -20 -5 4 -7 -11
-4 -34 4 -26 2 -40 -6 -40 -7 0 -11 22 -11 60 0 47 3 60 15 60 9 0 15 -10 15
-26z m-60 -44 c0 -53 -2 -60 -20 -60 -16 0 -20 7 -20 34 0 19 5 38 11 41 6 4
8 13 5 20 -2 7 -2 16 1 19 17 16 23 1 23 -54z m-90 29 c0 -5 -4 -9 -10 -9 -5
0 -10 7 -10 16 0 8 5 12 10 9 6 -3 10 -10 10 -16z m195 -35 c-5 -54 -15 -54
-15 0 0 26 4 45 9 42 5 -3 8 -22 6 -42z"/>
<path d="M3959 103 c-16 -4 -29 -43 -29 -84 0 -16 8 -19 45 -19 l45 0 0 55 c0
58 -6 63 -61 48z"/>
</g>
</svg>
